<svg xmlns="http://www.w3.org/2000/svg" direction="ltr" width="1024" height="1024" viewBox="5890.518505495634 5720.319170116318 1024 1024" stroke-linecap="round" stroke-linejoin="round" data-color-mode="light" class="tl-container tl-theme__force-sRGB tl-theme__light" style="background-color: transparent;"><defs/><g transform="matrix(1, 0, 0, 1, 5890.5185, 5720.3192)" opacity="1"><g data-lovart-layer-name="SVG 4"><g transform="scale(1, 1)"><g>
<g xmlns="http://www.w3.org/2000/svg" stroke-width="2.00" fill="none" stroke-linecap="butt">
<path stroke="#f7f6fe" vector-effect="non-scaling-stroke" d="   M 368.46 480.88   Q 368.90 481.02 369.22 480.94"/>
<path stroke="#808080" vector-effect="non-scaling-stroke" d="   M 369.22 480.94   L 368.98 481.37   A 1.01 0.98 -31.1 0 0 368.85 481.86   L 368.85 521.48   A 0.44 0.44 0.0 0 1 368.41 521.92   L 328.18 521.92   A 0.36 0.36 0.0 0 0 327.82 522.28   L 327.80 601.64"/>
<path stroke="#f7f6fe" vector-effect="non-scaling-stroke" d="   M 327.80 601.64   L 327.54 601.88"/>
<path stroke="#808080" vector-effect="non-scaling-stroke" d="   M 327.54 601.88   L 287.25 601.87   A 0.32 0.31 0.0 0 0 286.93 602.18   L 286.93 641.33   A 0.49 0.49 0.0 0 1 286.44 641.82   L 246.29 641.82   A 0.55 0.54 -0.0 0 0 245.74 642.36   L 245.74 721.93"/>
<path stroke="#f7f6fe" vector-effect="non-scaling-stroke" d="   M 245.74 721.93   Q 245.79 721.94 245.85 721.95"/>
<path stroke="#808080" vector-effect="non-scaling-stroke" d="   M 245.85 721.95   L 205.32 721.90   A 0.46 0.46 0.0 0 0 204.86 722.36   L 204.86 801.52   A 0.36 0.35 -0.0 0 1 204.50 801.87   L 164.35 801.87   A 0.45 0.44 90.0 0 0 163.91 802.32   L 163.88 842.00"/>
<path stroke="#808080" vector-effect="non-scaling-stroke" d="   M 163.88 842.00   L 123.66 841.94   A 0.73 0.72 -0.0 0 0 122.93 842.66   L 122.93 881.30   A 0.59 0.59 0.0 0 1 122.34 881.89   L 82.70 881.89   A 0.82 0.81 0.0 0 0 81.88 882.70   L 81.88 962.30   A 0.58 0.58 0.0 0 0 82.46 962.88   L 204.78 962.88   A 0.45 0.45 0.0 0 0 205.23 962.43   L 205.23 922.76   A 0.59 0.59 0.0 0 1 205.82 922.17   L 286.35 922.17   A 0.57 0.56 0.0 0 0 286.92 921.61   L 286.93 881.92"/>
<path stroke="#808080" vector-effect="non-scaling-stroke" d="   M 286.93 881.92   L 368.53 881.94   A 0.37 0.37 0.0 0 1 368.90 882.31   L 368.90 962.10   A 0.78 0.77 90.0 0 0 369.67 962.88   L 695.73 962.88   A 0.44 0.43 -90.0 0 0 696.16 962.44   L 696.16 882.54   A 0.66 0.66 0.0 0 0 695.50 881.88   L 655.59 881.88   A 0.52 0.52 0.0 0 1 655.07 881.36   L 655.07 842.55   A 0.44 0.44 0.0 0 1 655.51 842.11   L 695.59 842.11   A 0.50 0.50 0.0 0 0 696.09 841.61   L 695.79 801.92"/>
<path stroke="#f7f6fe" vector-effect="non-scaling-stroke" d="   M 695.79 801.92   L 696.08 801.71"/>
<path stroke="#808080" vector-effect="non-scaling-stroke" d="   M 696.08 801.71   L 736.52 801.92   A 0.52 0.52 0.0 0 0 737.05 801.40   L 737.05 722.84   A 0.91 0.90 -0.0 0 1 737.96 721.94   L 777.70 721.94   A 0.50 0.49 -90.0 0 0 778.19 721.44   L 778.19 522.44   A 0.52 0.51 -90.0 0 0 777.68 521.92   L 737.92 521.92   A 0.80 0.79 -0.0 0 1 737.12 521.13   L 737.12 481.60   A 0.70 0.70 0.0 0 1 737.82 480.90   L 818.80 480.90   A 0.35 0.35 0.0 0 0 819.15 480.55   L 819.15 399.67   A 0.62 0.61 90.0 0 0 818.54 399.05   L 778.58 399.05   A 0.38 0.38 0.0 0 1 778.20 398.67   L 778.20 359.10   A 0.82 0.82 0.0 0 0 777.38 358.28   L 737.68 358.28   A 0.57 0.57 0.0 0 1 737.11 357.71   L 737.11 318.19   A 0.56 0.56 0.0 0 0 736.55 317.63   L 696.57 317.63   A 0.38 0.38 0.0 0 1 696.19 317.25   L 696.19 277.25   A 0.67 0.66 90.0 0 0 695.53 276.58   L 655.75 276.58   A 0.65 0.65 0.0 0 1 655.10 275.93   L 655.10 235.83   A 0.40 0.40 0.0 0 0 654.70 235.43   L 614.76 235.43   A 0.53 0.53 0.0 0 1 614.23 234.90   L 614.23 195.16   A 0.41 0.40 0.0 0 0 613.82 194.76   L 451.69 194.76   A 0.81 0.81 0.0 0 1 450.88 193.95   L 450.88 72.13   A 0.32 0.32 0.0 0 0 450.56 71.81   L 369.20 71.81   A 0.39 0.39 0.0 0 0 368.81 72.20   L 368.81 112.34   A 0.52 0.52 0.0 0 0 369.33 112.86   L 409.32 112.86   A 0.48 0.48 0.0 0 1 409.80 113.34   L 409.80 194.17   A 0.61 0.61 0.0 0 1 409.19 194.78   L 369.33 194.78   A 0.50 0.49 -0.0 0 0 368.83 195.27   L 368.83 235.34   A 0.62 0.62 0.0 0 0 369.45 235.96   L 409.19 235.96   A 0.52 0.52 0.0 0 1 409.71 236.48   L 409.71 275.93   A 0.66 0.65 -0.0 0 1 409.05 276.58   L 369.35 276.58   A 0.52 0.52 0.0 0 0 368.83 277.10   L 368.83 317.40   A 0.24 0.24 0.0 0 1 368.59 317.64   L 328.13 317.64   A 0.41 0.41 0.0 0 0 327.72 318.05   L 327.72 480.46   A 0.46 0.46 0.0 0 0 328.18 480.92   L 368.46 480.88"/>
<path stroke="#77777f" vector-effect="non-scaling-stroke" d="   M 696.08 801.71   L 696.04 762.72"/>
<path stroke="#808080" vector-effect="non-scaling-stroke" d="   M 696.04 762.72   Q 696.20 742.60 696.17 722.50   Q 696.17 722.05 696.54 721.81"/>
<path stroke="#77777f" vector-effect="non-scaling-stroke" d="   M 696.54 721.81   L 736.61 721.78   A 0.40 0.40 0.0 0 0 737.01 721.38   L 736.94 682.08"/>
<path stroke="#808080" vector-effect="non-scaling-stroke" d="   M 736.94 682.08   L 736.88 522.48   A 0.44 0.44 0.0 0 0 736.44 522.04   L 696.61 522.04   A 0.58 0.57 90.0 0 1 696.04 521.46   L 696.00 481.27"/>
<path stroke="#6a6769" vector-effect="non-scaling-stroke" d="   M 696.00 481.27   L 696.30 440.14   A 0.24 0.24 0.0 0 1 696.54 439.91   L 777.69 439.91   A 0.39 0.38 -90.0 0 0 778.07 439.52   L 778.07 399.60   A 0.48 0.47 90.0 0 0 777.60 399.12   L 737.73 399.12   A 0.68 0.68 0.0 0 1 737.05 398.44   L 737.05 358.99   A 0.53 0.52 -90.0 0 0 736.53 358.46   Q 721.12 358.30 696.51 358.48   Q 696.06 358.49 695.92 357.96"/>
<path stroke="#808080" vector-effect="non-scaling-stroke" d="   M 695.92 357.96   L 695.97 318.26   A 0.56 0.56 0.0 0 0 695.41 317.70   L 655.45 317.70   A 0.49 0.49 0.0 0 1 654.96 317.21   L 654.96 277.39   A 0.55 0.55 0.0 0 0 654.41 276.84   L 614.40 276.84   A 0.49 0.48 90.0 0 1 613.92 276.35   L 613.92 236.44   A 0.39 0.39 0.0 0 0 613.53 236.05   L 491.81 235.97"/>
<path stroke="#77777f" vector-effect="non-scaling-stroke" d="   M 491.81 235.97   L 451.42 236.01   A 0.56 0.55 -90.0 0 0 450.87 236.57   L 450.87 276.45   A 0.40 0.39 -0.0 0 1 450.47 276.84   L 410.40 276.84   A 0.53 0.52 90.0 0 0 409.88 277.37   L 409.88 317.20   A 0.53 0.53 0.0 0 1 409.35 317.73   L 369.48 317.73   A 0.57 0.56 -90.0 0 0 368.92 318.30   Q 368.94 406.54 368.89 479.99   Q 368.89 480.29 368.78 480.48   Q 368.66 480.72 368.46 480.88"/>
<path stroke="#f7f6fe" vector-effect="non-scaling-stroke" d="   M 491.81 235.97   L 492.09 276.27   A 0.78 0.78 0.0 0 1 491.29 277.05   Q 470.73 276.52 451.75 277.62   A 0.96 0.96 0.0 0 0 450.85 278.58   L 450.85 316.22   A 1.66 1.66 0.0 0 1 449.19 317.88   L 411.01 317.88   A 1.03 1.03 0.0 0 0 409.98 318.91   L 409.97 480.87"/>
<path stroke="#77777f" vector-effect="non-scaling-stroke" d="   M 409.97 480.87   L 369.22 480.94"/>
<path stroke="#77777f" vector-effect="non-scaling-stroke" d="   M 695.79 801.92   L 655.80 801.90   A 0.84 0.84 0.0 0 0 654.96 802.74   L 654.96 841.37   A 0.55 0.55 0.0 0 1 654.41 841.92   L 613.92 842.01"/>
<path stroke="#f6e8f6" vector-effect="non-scaling-stroke" d="   M 613.92 842.01   L 573.20 842.25"/>
<path stroke="#77777f" vector-effect="non-scaling-stroke" d="   M 573.20 842.25   L 532.54 841.97"/>
<path stroke="#eae7e9" vector-effect="non-scaling-stroke" d="   M 695.92 357.96   L 695.67 358.14   A 0.48 0.46 -60.6 0 1 695.41 358.22   L 655.47 358.52   A 0.45 0.44 -0.7 0 0 655.03 358.96   L 655.03 480.09   A 0.98 0.97 0.3 0 0 656.00 481.06   L 696.00 481.27"/>
<path stroke="#f7f6fe" vector-effect="non-scaling-stroke" d="   M 736.94 682.08   L 697.16 682.07   A 1.23 1.23 0.0 0 0 695.93 683.31   Q 696.10 699.61 695.90 715.23   Q 695.86 718.65 696.54 721.81"/>
<path stroke="#f7f6fe" vector-effect="non-scaling-stroke" d="   M 696.04 762.72   Q 691.45 761.43 689.44 761.53   Q 673.05 762.34 656.17 761.99   A 1.17 1.17 0.0 0 0 654.98 763.16   L 654.98 801.26   A 0.76 0.76 0.0 0 1 654.22 802.02   L 532.69 802.02   A 0.67 0.66 -89.6 0 0 532.03 802.68   Q 531.85 817.93 531.81 833.20   Q 531.80 836.43 532.54 841.97"/>
<path stroke="#808080" vector-effect="non-scaling-stroke" d="   M 532.54 841.97   L 491.68 841.89"/>
<path stroke="#fff1f7" vector-effect="non-scaling-stroke" d="   M 491.68 841.89   L 450.95 842.05"/>
<path stroke="#808080" vector-effect="non-scaling-stroke" d="   M 450.95 842.05   L 369.22 841.98"/>
<path stroke="#f7f6fe" vector-effect="non-scaling-stroke" d="   M 369.22 841.98   C 368.63 828.62 369.74 815.47 368.32 802.09"/>
<path stroke="#efeffe" vector-effect="non-scaling-stroke" d="   M 368.32 802.09   L 450.32 802.05   A 0.62 0.61 -90.0 0 0 450.93 801.43   L 450.93 762.96   A 0.79 0.79 0.0 0 1 451.72 762.17   L 491.33 762.17   A 0.54 0.54 0.0 0 0 491.87 761.63   L 491.51 722.59"/>
<path stroke="#f7f6fe" vector-effect="non-scaling-stroke" d="   M 491.51 722.59   Q 492.13 722.18 492.30 721.65"/>
<path stroke="#efeffe" vector-effect="non-scaling-stroke" d="   M 492.30 721.65   L 531.34 722.01   A 0.69 0.68 -0.4 0 0 532.03 721.32   L 531.65 682.36"/>
<path stroke="#f7f6fe" vector-effect="non-scaling-stroke" d="   M 531.65 682.36   L 532.16 682.01"/>
<path stroke="#efeffe" vector-effect="non-scaling-stroke" d="   M 532.16 682.01   L 572.60 681.93   A 0.63 0.62 -90.0 0 0 573.22 681.30   L 573.22 602.68   A 0.74 0.74 0.0 0 0 572.48 601.94   L 531.94 602.05"/>
<path stroke="#efeffe" vector-effect="non-scaling-stroke" d="   M 531.94 602.05   L 531.98 563.90   A 1.02 1.02 0.0 0 0 530.95 562.88   L 491.98 563.00"/>
<path stroke="#f7f6fe" vector-effect="non-scaling-stroke" d="   M 491.98 563.00   L 491.87 523.13   A 1.10 1.09 2.3 0 0 490.86 522.04   Q 487.00 521.77 483.25 521.78   Q 482.30 521.78 428.52 521.94   Q 427.77 521.94 419.25 521.55   Q 414.55 521.34 409.99 521.84"/>
<path stroke="#808080" vector-effect="non-scaling-stroke" d="   M 409.99 521.84   L 409.97 480.87"/>
<path stroke="#77777f" vector-effect="non-scaling-stroke" d="   M 409.99 521.84   L 369.70 522.01   A 0.82 0.81 -0.4 0 0 368.89 522.82   L 368.89 601.54   A 0.48 0.48 0.0 0 1 368.40 602.02   L 327.80 601.64"/>
<path stroke="#77777f" vector-effect="non-scaling-stroke" d="   M 329.80 841.91   L 369.22 841.98"/>
<path stroke="#7f7177" vector-effect="non-scaling-stroke" d="   M 450.95 842.05   L 450.96 881.44   A 0.52 0.52 0.0 0 1 450.44 881.96   L 410.13 881.96   A 0.27 0.27 0.0 0 0 409.86 882.23   L 409.86 921.66   A 0.39 0.39 0.0 0 0 410.25 922.05   L 531.25 922.05   A 0.84 0.84 0.0 0 0 532.09 921.21   L 532.09 882.53   A 0.59 0.58 -90.0 0 0 531.51 881.94   L 492.29 881.94   A 0.54 0.54 0.0 0 1 491.75 881.40   L 491.68 841.89"/>
<path stroke="#7f7177" vector-effect="non-scaling-stroke" d="   M 573.20 842.25   L 573.30 921.31   A 0.72 0.72 0.0 0 0 574.02 922.03   L 654.49 922.03   A 0.54 0.54 0.0 0 0 655.03 921.49   L 655.03 882.70   A 0.72 0.72 0.0 0 0 654.31 881.98   L 614.76 881.98   A 0.80 0.80 0.0 0 1 613.96 881.18   L 613.92 842.01"/>
<path stroke="#e6e6fd" vector-effect="non-scaling-stroke" d="   M 368.32 802.09   L 328.78 802.18   A 1.19 1.19 0.0 0 0 327.59 803.38   Q 327.66 817.91 328.18 832.09   Q 328.36 837.09 329.80 841.91"/>
<path stroke="#6f6f7f" vector-effect="non-scaling-stroke" d="   M 329.80 841.91   L 287.74 841.88   A 0.80 0.79 0.0 0 0 286.94 842.67   L 286.93 881.92"/>
<path stroke="#6f6f7f" vector-effect="non-scaling-stroke" d="   M 286.93 881.92   L 245.32 881.90"/>
<path stroke="#e6e6fd" vector-effect="non-scaling-stroke" d="   M 491.98 563.00   L 491.89 601.10   A 1.07 1.07 0.0 0 0 492.96 602.17   L 531.94 602.05"/>
<path stroke="#e6e6fd" vector-effect="non-scaling-stroke" d="   M 531.94 602.05   L 532.16 682.01"/>
<path stroke="#e6e6fd" vector-effect="non-scaling-stroke" d="   M 531.65 682.36   L 492.59 681.98   A 0.73 0.73 0.0 0 0 491.85 682.72   L 492.30 721.65"/>
<path stroke="#e6e6fd" vector-effect="non-scaling-stroke" d="   M 491.51 722.59   Q 485.70 722.03 474.25 722.01   Q 435.75 721.93 410.73 722.04   A 0.80 0.80 0.0 0 0 409.93 722.84   L 409.93 761.14   A 0.79 0.78 0.0 0 1 409.14 761.92   L 288.04 761.92   A 1.06 1.05 -89.4 0 0 286.99 762.96   Q 286.70 788.35 287.01 816.25   C 287.12 826.22 286.98 833.45 285.86 839.67   A 1.14 1.13 -87.9 0 1 284.87 840.60   Q 265.92 842.66 246.69 841.85   A 1.05 1.05 0.0 0 0 245.60 842.89   L 245.32 881.90"/>
<path stroke="#77777f" vector-effect="non-scaling-stroke" d="   M 245.32 881.90   L 204.96 881.86"/>
<path stroke="#e6e6fd" vector-effect="non-scaling-stroke" d="   M 204.96 881.86   L 163.95 880.90"/>
<path stroke="#77777f" vector-effect="non-scaling-stroke" d="   M 163.95 880.90   L 163.88 842.00"/>
<path stroke="#77777f" vector-effect="non-scaling-stroke" d="   M 163.88 842.00   L 204.86 842.03   A 0.35 0.35 0.0 0 0 205.21 841.68   L 205.21 802.62   A 0.66 0.66 0.0 0 1 205.87 801.96   L 245.48 801.96   A 0.35 0.35 0.0 0 0 245.83 801.61   L 245.85 721.95"/>
<path stroke="#77777f" vector-effect="non-scaling-stroke" d="   M 245.74 721.93   L 286.46 721.90   A 0.57 0.56 -0.5 0 0 287.02 721.34   L 287.02 642.32   A 0.36 0.36 0.0 0 1 287.38 641.96   L 327.22 641.96   A 0.56 0.56 0.0 0 0 327.78 641.39   L 327.54 601.88"/>
<path stroke="#6f6f7f" vector-effect="non-scaling-stroke" d="   M 163.95 880.90   Q 163.98 881.86 163.24 881.95"/>
<path stroke="#77777f" vector-effect="non-scaling-stroke" d="   M 163.24 881.95   L 123.93 881.90   A 0.79 0.79 0.0 0 0 123.14 882.69   L 123.14 921.51   A 0.56 0.55 -90.0 0 0 123.69 922.07   L 165.85 922.07"/>
<path stroke="#6f6f7f" vector-effect="non-scaling-stroke" d="   M 165.85 922.07   L 204.13 922.01   A 0.87 0.87 0.0 0 0 205.00 921.14   L 204.96 881.86"/>
<path stroke="#e6e6fd" vector-effect="non-scaling-stroke" d="   M 165.85 922.07   Q 163.90 914.37 163.72 906.73   Q 163.44 894.40 163.24 881.95"/>
<path stroke="#808080" vector-effect="non-scaling-stroke" d="   M 450.75 195.24   A 0.44 0.44 0.0 0 0 450.31 194.80   L 410.41 194.80   A 0.44 0.44 0.0 0 0 409.97 195.24   L 409.97 235.14   A 0.44 0.44 0.0 0 0 410.41 235.58   L 450.31 235.58   A 0.44 0.44 0.0 0 0 450.75 235.14   L 450.75 195.24"/>
<path stroke="#808080" vector-effect="non-scaling-stroke" d="   M 614.22 318.14   A 0.52 0.52 0.0 0 0 613.70 317.62   L 573.70 317.62   A 0.52 0.52 0.0 0 0 573.18 318.14   L 573.18 398.64   A 0.52 0.52 0.0 0 0 573.70 399.16   L 613.70 399.16   A 0.52 0.52 0.0 0 0 614.22 398.64   L 614.22 318.14"/>
<path stroke="#fff1f7" vector-effect="non-scaling-stroke" d="   M 491.80 399.83   L 491.80 480.12   A 0.96 0.96 0.0 0 0 492.76 481.08   L 572.02 481.08   A 1.05 1.05 0.0 0 0 573.07 480.03   Q 573.06 439.39 573.14 408.57   Q 573.15 404.86 572.46 401.05   A 2.04 2.02 -2.1 0 0 570.67 399.40   Q 566.79 399.00 564.75 399.02   Q 560.90 399.07 492.59 399.04   A 0.79 0.79 0.0 0 0 491.80 399.83"/>
</g>
<path xmlns="http://www.w3.org/2000/svg" fill="#ffffff" d="   M 1024.00 0.00   L 1024.00 1024.00   L 0.00 1024.00   L 0.00 0.00   L 1024.00 0.00   Z   M 368.46 480.88   Q 368.90 481.02 369.22 480.94   L 368.98 481.37   A 1.01 0.98 -31.1 0 0 368.85 481.86   L 368.85 521.48   A 0.44 0.44 0.0 0 1 368.41 521.92   L 328.18 521.92   A 0.36 0.36 0.0 0 0 327.82 522.28   L 327.80 601.64   L 327.54 601.88   L 287.25 601.87   A 0.32 0.31 0.0 0 0 286.93 602.18   L 286.93 641.33   A 0.49 0.49 0.0 0 1 286.44 641.82   L 246.29 641.82   A 0.55 0.54 -0.0 0 0 245.74 642.36   L 245.74 721.93   Q 245.79 721.94 245.85 721.95   L 205.32 721.90   A 0.46 0.46 0.0 0 0 204.86 722.36   L 204.86 801.52   A 0.36 0.35 -0.0 0 1 204.50 801.87   L 164.35 801.87   A 0.45 0.44 90.0 0 0 163.91 802.32   L 163.88 842.00   L 123.66 841.94   A 0.73 0.72 -0.0 0 0 122.93 842.66   L 122.93 881.30   A 0.59 0.59 0.0 0 1 122.34 881.89   L 82.70 881.89   A 0.82 0.81 0.0 0 0 81.88 882.70   L 81.88 962.30   A 0.58 0.58 0.0 0 0 82.46 962.88   L 204.78 962.88   A 0.45 0.45 0.0 0 0 205.23 962.43   L 205.23 922.76   A 0.59 0.59 0.0 0 1 205.82 922.17   L 286.35 922.17   A 0.57 0.56 0.0 0 0 286.92 921.61   L 286.93 881.92   L 368.53 881.94   A 0.37 0.37 0.0 0 1 368.90 882.31   L 368.90 962.10   A 0.78 0.77 90.0 0 0 369.67 962.88   L 695.73 962.88   A 0.44 0.43 -90.0 0 0 696.16 962.44   L 696.16 882.54   A 0.66 0.66 0.0 0 0 695.50 881.88   L 655.59 881.88   A 0.52 0.52 0.0 0 1 655.07 881.36   L 655.07 842.55   A 0.44 0.44 0.0 0 1 655.51 842.11   L 695.59 842.11   A 0.50 0.50 0.0 0 0 696.09 841.61   L 695.79 801.92   L 696.08 801.71   L 736.52 801.92   A 0.52 0.52 0.0 0 0 737.05 801.40   L 737.05 722.84   A 0.91 0.90 -0.0 0 1 737.96 721.94   L 777.70 721.94   A 0.50 0.49 -90.0 0 0 778.19 721.44   L 778.19 522.44   A 0.52 0.51 -90.0 0 0 777.68 521.92   L 737.92 521.92   A 0.80 0.79 -0.0 0 1 737.12 521.13   L 737.12 481.60   A 0.70 0.70 0.0 0 1 737.82 480.90   L 818.80 480.90   A 0.35 0.35 0.0 0 0 819.15 480.55   L 819.15 399.67   A 0.62 0.61 90.0 0 0 818.54 399.05   L 778.58 399.05   A 0.38 0.38 0.0 0 1 778.20 398.67   L 778.20 359.10   A 0.82 0.82 0.0 0 0 777.38 358.28   L 737.68 358.28   A 0.57 0.57 0.0 0 1 737.11 357.71   L 737.11 318.19   A 0.56 0.56 0.0 0 0 736.55 317.63   L 696.57 317.63   A 0.38 0.38 0.0 0 1 696.19 317.25   L 696.19 277.25   A 0.67 0.66 90.0 0 0 695.53 276.58   L 655.75 276.58   A 0.65 0.65 0.0 0 1 655.10 275.93   L 655.10 235.83   A 0.40 0.40 0.0 0 0 654.70 235.43   L 614.76 235.43   A 0.53 0.53 0.0 0 1 614.23 234.90   L 614.23 195.16   A 0.41 0.40 0.0 0 0 613.82 194.76   L 451.69 194.76   A 0.81 0.81 0.0 0 1 450.88 193.95   L 450.88 72.13   A 0.32 0.32 0.0 0 0 450.56 71.81   L 369.20 71.81   A 0.39 0.39 0.0 0 0 368.81 72.20   L 368.81 112.34   A 0.52 0.52 0.0 0 0 369.33 112.86   L 409.32 112.86   A 0.48 0.48 0.0 0 1 409.80 113.34   L 409.80 194.17   A 0.61 0.61 0.0 0 1 409.19 194.78   L 369.33 194.78   A 0.50 0.49 -0.0 0 0 368.83 195.27   L 368.83 235.34   A 0.62 0.62 0.0 0 0 369.45 235.96   L 409.19 235.96   A 0.52 0.52 0.0 0 1 409.71 236.48   L 409.71 275.93   A 0.66 0.65 -0.0 0 1 409.05 276.58   L 369.35 276.58   A 0.52 0.52 0.0 0 0 368.83 277.10   L 368.83 317.40   A 0.24 0.24 0.0 0 1 368.59 317.64   L 328.13 317.64   A 0.41 0.41 0.0 0 0 327.72 318.05   L 327.72 480.46   A 0.46 0.46 0.0 0 0 328.18 480.92   L 368.46 480.88   Z"/>
<path xmlns="http://www.w3.org/2000/svg" fill="#000000" d="   M 696.08 801.71   L 696.04 762.72   Q 696.20 742.60 696.17 722.50   Q 696.17 722.05 696.54 721.81   L 736.61 721.78   A 0.40 0.40 0.0 0 0 737.01 721.38   L 736.94 682.08   L 736.88 522.48   A 0.44 0.44 0.0 0 0 736.44 522.04   L 696.61 522.04   A 0.58 0.57 90.0 0 1 696.04 521.46   L 696.00 481.27   L 696.30 440.14   A 0.24 0.24 0.0 0 1 696.54 439.91   L 777.69 439.91   A 0.39 0.38 -90.0 0 0 778.07 439.52   L 778.07 399.60   A 0.48 0.47 90.0 0 0 777.60 399.12   L 737.73 399.12   A 0.68 0.68 0.0 0 1 737.05 398.44   L 737.05 358.99   A 0.53 0.52 -90.0 0 0 736.53 358.46   Q 721.12 358.30 696.51 358.48   Q 696.06 358.49 695.92 357.96   L 695.97 318.26   A 0.56 0.56 0.0 0 0 695.41 317.70   L 655.45 317.70   A 0.49 0.49 0.0 0 1 654.96 317.21   L 654.96 277.39   A 0.55 0.55 0.0 0 0 654.41 276.84   L 614.40 276.84   A 0.49 0.48 90.0 0 1 613.92 276.35   L 613.92 236.44   A 0.39 0.39 0.0 0 0 613.53 236.05   L 491.81 235.97   L 451.42 236.01   A 0.56 0.55 -90.0 0 0 450.87 236.57   L 450.87 276.45   A 0.40 0.39 -0.0 0 1 450.47 276.84   L 410.40 276.84   A 0.53 0.52 90.0 0 0 409.88 277.37   L 409.88 317.20   A 0.53 0.53 0.0 0 1 409.35 317.73   L 369.48 317.73   A 0.57 0.56 -90.0 0 0 368.92 318.30   Q 368.94 406.54 368.89 479.99   Q 368.89 480.29 368.78 480.48   Q 368.66 480.72 368.46 480.88   L 328.18 480.92   A 0.46 0.46 0.0 0 1 327.72 480.46   L 327.72 318.05   A 0.41 0.41 0.0 0 1 328.13 317.64   L 368.59 317.64   A 0.24 0.24 0.0 0 0 368.83 317.40   L 368.83 277.10   A 0.52 0.52 0.0 0 1 369.35 276.58   L 409.05 276.58   A 0.66 0.65 -0.0 0 0 409.71 275.93   L 409.71 236.48   A 0.52 0.52 0.0 0 0 409.19 235.96   L 369.45 235.96   A 0.62 0.62 0.0 0 1 368.83 235.34   L 368.83 195.27   A 0.50 0.49 -0.0 0 1 369.33 194.78   L 409.19 194.78   A 0.61 0.61 0.0 0 0 409.80 194.17   L 409.80 113.34   A 0.48 0.48 0.0 0 0 409.32 112.86   L 369.33 112.86   A 0.52 0.52 0.0 0 1 368.81 112.34   L 368.81 72.20   A 0.39 0.39 0.0 0 1 369.20 71.81   L 450.56 71.81   A 0.32 0.32 0.0 0 1 450.88 72.13   L 450.88 193.95   A 0.81 0.81 0.0 0 0 451.69 194.76   L 613.82 194.76   A 0.41 0.40 -0.0 0 1 614.23 195.16   L 614.23 234.90   A 0.53 0.53 0.0 0 0 614.76 235.43   L 654.70 235.43   A 0.40 0.40 0.0 0 1 655.10 235.83   L 655.10 275.93   A 0.65 0.65 0.0 0 0 655.75 276.58   L 695.53 276.58   A 0.67 0.66 90.0 0 1 696.19 277.25   L 696.19 317.25   A 0.38 0.38 0.0 0 0 696.57 317.63   L 736.55 317.63   A 0.56 0.56 0.0 0 1 737.11 318.19   L 737.11 357.71   A 0.57 0.57 0.0 0 0 737.68 358.28   L 777.38 358.28   A 0.82 0.82 0.0 0 1 778.20 359.10   L 778.20 398.67   A 0.38 0.38 0.0 0 0 778.58 399.05   L 818.54 399.05   A 0.62 0.61 -90.0 0 1 819.15 399.67   L 819.15 480.55   A 0.35 0.35 0.0 0 1 818.80 480.90   L 737.82 480.90   A 0.70 0.70 0.0 0 0 737.12 481.60   L 737.12 521.13   A 0.80 0.79 0.0 0 0 737.92 521.92   L 777.68 521.92   A 0.52 0.51 -90.0 0 1 778.19 522.44   L 778.19 721.44   A 0.50 0.49 -90.0 0 1 777.70 721.94   L 737.96 721.94   A 0.91 0.90 0.0 0 0 737.05 722.84   L 737.05 801.40   A 0.52 0.52 0.0 0 1 736.52 801.92   L 696.08 801.71   Z   M 450.75 195.24   A 0.44 0.44 0.0 0 0 450.31 194.80   L 410.41 194.80   A 0.44 0.44 0.0 0 0 409.97 195.24   L 409.97 235.14   A 0.44 0.44 0.0 0 0 410.41 235.58   L 450.31 235.58   A 0.44 0.44 0.0 0 0 450.75 235.14   L 450.75 195.24   Z"/>
<rect xmlns="http://www.w3.org/2000/svg" fill="#ffffff" x="409.97" y="194.80" width="40.78" height="40.78" rx="0.44"/>
<path xmlns="http://www.w3.org/2000/svg" fill="#eeedfd" d="   M 491.81 235.97   L 492.09 276.27   A 0.78 0.78 0.0 0 1 491.29 277.05   Q 470.73 276.52 451.75 277.62   A 0.96 0.96 0.0 0 0 450.85 278.58   L 450.85 316.22   A 1.66 1.66 0.0 0 1 449.19 317.88   L 411.01 317.88   A 1.03 1.03 0.0 0 0 409.98 318.91   L 409.97 480.87   L 369.22 480.94   Q 368.90 481.02 368.46 480.88   Q 368.66 480.72 368.78 480.48   Q 368.89 480.29 368.89 479.99   Q 368.94 406.54 368.92 318.30   A 0.57 0.56 90.0 0 1 369.48 317.73   L 409.35 317.73   A 0.53 0.53 0.0 0 0 409.88 317.20   L 409.88 277.37   A 0.53 0.52 -90.0 0 1 410.40 276.84   L 450.47 276.84   A 0.40 0.39 -0.0 0 0 450.87 276.45   L 450.87 236.57   A 0.56 0.55 -90.0 0 1 451.42 236.01   L 491.81 235.97   Z"/>
<path xmlns="http://www.w3.org/2000/svg" fill="#ffffff" d="   M 695.92 357.96   L 695.67 358.14   A 0.48 0.46 -60.6 0 1 695.41 358.22   L 655.47 358.52   A 0.45 0.44 -0.7 0 0 655.03 358.96   L 655.03 480.09   A 0.98 0.97 0.3 0 0 656.00 481.06   L 696.00 481.27   L 696.04 521.46   A 0.58 0.57 -90.0 0 0 696.61 522.04   L 736.44 522.04   A 0.44 0.44 0.0 0 1 736.88 522.48   L 736.94 682.08   L 697.16 682.07   A 1.23 1.23 0.0 0 0 695.93 683.31   Q 696.10 699.61 695.90 715.23   Q 695.86 718.65 696.54 721.81   Q 696.17 722.05 696.17 722.50   Q 696.20 742.60 696.04 762.72   Q 691.45 761.43 689.44 761.53   Q 673.05 762.34 656.17 761.99   A 1.17 1.17 0.0 0 0 654.98 763.16   L 654.98 801.26   A 0.76 0.76 0.0 0 1 654.22 802.02   L 532.69 802.02   A 0.67 0.66 -89.6 0 0 532.03 802.68   Q 531.85 817.93 531.81 833.20   Q 531.80 836.43 532.54 841.97   L 491.68 841.89   L 450.95 842.05   L 369.22 841.98   C 368.63 828.62 369.74 815.47 368.32 802.09   L 450.32 802.05   A 0.62 0.61 -90.0 0 0 450.93 801.43   L 450.93 762.96   A 0.79 0.79 0.0 0 1 451.72 762.17   L 491.33 762.17   A 0.54 0.54 0.0 0 0 491.87 761.63   L 491.51 722.59   Q 492.13 722.18 492.30 721.65   L 531.34 722.01   A 0.69 0.68 -0.4 0 0 532.03 721.32   L 531.65 682.36   L 532.16 682.01   L 572.60 681.93   A 0.63 0.62 -90.0 0 0 573.22 681.30   L 573.22 602.68   A 0.74 0.74 0.0 0 0 572.48 601.94   L 531.94 602.05   L 531.98 563.90   A 1.02 1.02 0.0 0 0 530.95 562.88   L 491.98 563.00   L 491.87 523.13   A 1.10 1.09 2.3 0 0 490.86 522.04   Q 487.00 521.77 483.25 521.78   Q 482.30 521.78 428.52 521.94   Q 427.77 521.94 419.25 521.55   Q 414.55 521.34 409.99 521.84   L 409.97 480.87   L 409.98 318.91   A 1.03 1.03 0.0 0 1 411.01 317.88   L 449.19 317.88   A 1.66 1.66 0.0 0 0 450.85 316.22   L 450.85 278.58   A 0.96 0.96 0.0 0 1 451.75 277.62   Q 470.73 276.52 491.29 277.05   A 0.78 0.78 0.0 0 0 492.09 276.27   L 491.81 235.97   L 613.53 236.05   A 0.39 0.39 0.0 0 1 613.92 236.44   L 613.92 276.35   A 0.49 0.48 90.0 0 0 614.40 276.84   L 654.41 276.84   A 0.55 0.55 0.0 0 1 654.96 277.39   L 654.96 317.21   A 0.49 0.49 0.0 0 0 655.45 317.70   L 695.41 317.70   A 0.56 0.56 0.0 0 1 695.97 318.26   L 695.92 357.96   Z   M 614.22 318.14   A 0.52 0.52 0.0 0 0 613.70 317.62   L 573.70 317.62   A 0.52 0.52 0.0 0 0 573.18 318.14   L 573.18 398.64   A 0.52 0.52 0.0 0 0 573.70 399.16   L 613.70 399.16   A 0.52 0.52 0.0 0 0 614.22 398.64   L 614.22 318.14   Z   M 491.80 399.83   L 491.80 480.12   A 0.96 0.96 0.0 0 0 492.76 481.08   L 572.02 481.08   A 1.05 1.05 0.0 0 0 573.07 480.03   Q 573.06 439.39 573.14 408.57   Q 573.15 404.86 572.46 401.05   A 2.04 2.02 -2.1 0 0 570.67 399.40   Q 566.79 399.00 564.75 399.02   Q 560.90 399.07 492.59 399.04   A 0.79 0.79 0.0 0 0 491.80 399.83   Z"/>
<rect xmlns="http://www.w3.org/2000/svg" fill="#000000" x="573.18" y="317.62" width="41.04" height="81.54" rx="0.52"/>
<path xmlns="http://www.w3.org/2000/svg" fill="#d4ced2" d="   M 695.92 357.96   Q 696.06 358.49 696.51 358.48   Q 721.12 358.30 736.53 358.46   A 0.53 0.52 -90.0 0 1 737.05 358.99   L 737.05 398.44   A 0.68 0.68 0.0 0 0 737.73 399.12   L 777.60 399.12   A 0.48 0.47 -90.0 0 1 778.07 399.60   L 778.07 439.52   A 0.39 0.38 -90.0 0 1 777.69 439.91   L 696.54 439.91   A 0.24 0.24 0.0 0 0 696.30 440.14   L 696.00 481.27   L 656.00 481.06   A 0.98 0.97 0.3 0 1 655.03 480.09   L 655.03 358.96   A 0.45 0.44 -0.7 0 1 655.47 358.52   L 695.41 358.22   A 0.48 0.46 -60.6 0 0 695.67 358.14   L 695.92 357.96   Z"/>
<path xmlns="http://www.w3.org/2000/svg" fill="#fee2ee" d="   M 491.80 399.83   A 0.79 0.79 0.0 0 1 492.59 399.04   Q 560.90 399.07 564.75 399.02   Q 566.79 399.00 570.67 399.40   A 2.04 2.02 -2.1 0 1 572.46 401.05   Q 573.15 404.86 573.14 408.57   Q 573.06 439.39 573.07 480.03   A 1.05 1.05 0.0 0 1 572.02 481.08   L 492.76 481.08   A 0.96 0.96 0.0 0 1 491.80 480.12   L 491.80 399.83   Z"/>
<path xmlns="http://www.w3.org/2000/svg" fill="#000000" d="   M 409.97 480.87   L 409.99 521.84   L 369.70 522.01   A 0.82 0.81 -0.4 0 0 368.89 522.82   L 368.89 601.54   A 0.48 0.48 0.0 0 1 368.40 602.02   L 327.80 601.64   L 327.82 522.28   A 0.36 0.36 0.0 0 1 328.18 521.92   L 368.41 521.92   A 0.44 0.44 0.0 0 0 368.85 521.48   L 368.85 481.86   A 1.01 0.98 -31.1 0 1 368.98 481.37   L 369.22 480.94   L 409.97 480.87   Z"/>
<path xmlns="http://www.w3.org/2000/svg" fill="#eeedfd" d="   M 491.98 563.00   L 491.89 601.10   A 1.07 1.07 0.0 0 0 492.96 602.17   L 531.94 602.05   L 532.16 682.01   L 531.65 682.36   L 492.59 681.98   A 0.73 0.73 0.0 0 0 491.85 682.72   L 492.30 721.65   Q 492.13 722.18 491.51 722.59   Q 485.70 722.03 474.25 722.01   Q 435.75 721.93 410.73 722.04   A 0.80 0.80 0.0 0 0 409.93 722.84   L 409.93 761.14   A 0.79 0.78 0.0 0 1 409.14 761.92   L 288.04 761.92   A 1.06 1.05 -89.4 0 0 286.99 762.96   Q 286.70 788.35 287.01 816.25   C 287.12 826.22 286.98 833.45 285.86 839.67   A 1.14 1.13 -87.9 0 1 284.87 840.60   Q 265.92 842.66 246.69 841.85   A 1.05 1.05 0.0 0 0 245.60 842.89   L 245.32 881.90   L 204.96 881.86   L 163.95 880.90   L 163.88 842.00   L 204.86 842.03   A 0.35 0.35 0.0 0 0 205.21 841.68   L 205.21 802.62   A 0.66 0.66 0.0 0 1 205.87 801.96   L 245.48 801.96   A 0.35 0.35 0.0 0 0 245.83 801.61   L 245.85 721.95   Q 245.79 721.94 245.74 721.93   L 286.46 721.90   A 0.57 0.56 -0.5 0 0 287.02 721.34   L 287.02 642.32   A 0.36 0.36 0.0 0 1 287.38 641.96   L 327.22 641.96   A 0.56 0.56 0.0 0 0 327.78 641.39   L 327.54 601.88   L 327.80 601.64   L 368.40 602.02   A 0.48 0.48 0.0 0 0 368.89 601.54   L 368.89 522.82   A 0.82 0.81 -0.4 0 1 369.70 522.01   L 409.99 521.84   Q 414.55 521.34 419.25 521.55   Q 427.77 521.94 428.52 521.94   Q 482.30 521.78 483.25 521.78   Q 487.00 521.77 490.86 522.04   A 1.10 1.09 2.3 0 1 491.87 523.13   L 491.98 563.00   Z"/>
<path xmlns="http://www.w3.org/2000/svg" fill="#dedefd" d="   M 531.94 602.05   L 492.96 602.17   A 1.07 1.07 0.0 0 1 491.89 601.10   L 491.98 563.00   L 530.95 562.88   A 1.02 1.02 0.0 0 1 531.98 563.90   L 531.94 602.05   Z"/>
<path xmlns="http://www.w3.org/2000/svg" fill="#000000" d="   M 327.54 601.88   L 327.78 641.39   A 0.56 0.56 0.0 0 1 327.22 641.96   L 287.38 641.96   A 0.36 0.36 0.0 0 0 287.02 642.32   L 287.02 721.34   A 0.57 0.56 -0.5 0 1 286.46 721.90   L 245.74 721.93   L 245.74 642.36   A 0.55 0.54 -0.0 0 1 246.29 641.82   L 286.44 641.82   A 0.49 0.49 0.0 0 0 286.93 641.33   L 286.93 602.18   A 0.32 0.31 0.0 0 1 287.25 601.87   L 327.54 601.88   Z"/>
<path xmlns="http://www.w3.org/2000/svg" fill="#dedefd" d="   M 532.16 682.01   L 531.94 602.05   L 572.48 601.94   A 0.74 0.74 0.0 0 1 573.22 602.68   L 573.22 681.30   A 0.63 0.62 -90.0 0 1 572.60 681.93   L 532.16 682.01   Z"/>
<path xmlns="http://www.w3.org/2000/svg" fill="#dedefd" d="   M 531.65 682.36   L 532.03 721.32   A 0.69 0.68 -0.4 0 1 531.34 722.01   L 492.30 721.65   L 491.85 682.72   A 0.73 0.73 0.0 0 1 492.59 681.98   L 531.65 682.36   Z"/>
<path xmlns="http://www.w3.org/2000/svg" fill="#eeedfd" d="   M 736.94 682.08   L 737.01 721.38   A 0.40 0.40 0.0 0 1 736.61 721.78   L 696.54 721.81   Q 695.86 718.65 695.90 715.23   Q 696.10 699.61 695.93 683.31   A 1.23 1.23 0.0 0 1 697.16 682.07   L 736.94 682.08   Z"/>
<path xmlns="http://www.w3.org/2000/svg" fill="#000000" d="   M 245.85 721.95   L 245.83 801.61   A 0.35 0.35 0.0 0 1 245.48 801.96   L 205.87 801.96   A 0.66 0.66 0.0 0 0 205.21 802.62   L 205.21 841.68   A 0.35 0.35 0.0 0 1 204.86 842.03   L 163.88 842.00   L 163.91 802.32   A 0.45 0.44 -90.0 0 1 164.35 801.87   L 204.50 801.87   A 0.36 0.35 0.0 0 0 204.86 801.52   L 204.86 722.36   A 0.46 0.46 0.0 0 1 205.32 721.90   L 245.85 721.95   Z"/>
<path xmlns="http://www.w3.org/2000/svg" fill="#dedefd" d="   M 491.51 722.59   L 491.87 761.63   A 0.54 0.54 0.0 0 1 491.33 762.17   L 451.72 762.17   A 0.79 0.79 0.0 0 0 450.93 762.96   L 450.93 801.43   A 0.62 0.61 90.0 0 1 450.32 802.05   L 368.32 802.09   L 328.78 802.18   A 1.19 1.19 0.0 0 0 327.59 803.38   Q 327.66 817.91 328.18 832.09   Q 328.36 837.09 329.80 841.91   L 287.74 841.88   A 0.80 0.79 0.0 0 0 286.94 842.67   L 286.93 881.92   L 245.32 881.90   L 245.60 842.89   A 1.05 1.05 0.0 0 1 246.69 841.85   Q 265.92 842.66 284.87 840.60   A 1.14 1.13 -87.9 0 0 285.86 839.67   C 286.98 833.45 287.12 826.22 287.01 816.25   Q 286.70 788.35 286.99 762.96   A 1.06 1.05 -89.4 0 1 288.04 761.92   L 409.14 761.92   A 0.79 0.78 0.0 0 0 409.93 761.14   L 409.93 722.84   A 0.80 0.80 0.0 0 1 410.73 722.04   Q 435.75 721.93 474.25 722.01   Q 485.70 722.03 491.51 722.59   Z"/>
<path xmlns="http://www.w3.org/2000/svg" fill="#eeedfd" d="   M 696.04 762.72   L 696.08 801.71   L 695.79 801.92   L 655.80 801.90   A 0.84 0.84 0.0 0 0 654.96 802.74   L 654.96 841.37   A 0.55 0.55 0.0 0 1 654.41 841.92   L 613.92 842.01   L 573.20 842.25   L 532.54 841.97   Q 531.80 836.43 531.81 833.20   Q 531.85 817.93 532.03 802.68   A 0.67 0.66 -89.6 0 1 532.69 802.02   L 654.22 802.02   A 0.76 0.76 0.0 0 0 654.98 801.26   L 654.98 763.16   A 1.17 1.17 0.0 0 1 656.17 761.99   Q 673.05 762.34 689.44 761.53   Q 691.45 761.43 696.04 762.72   Z"/>
<path xmlns="http://www.w3.org/2000/svg" fill="#000000" d="   M 695.79 801.92   L 696.09 841.61   A 0.50 0.50 0.0 0 1 695.59 842.11   L 655.51 842.11   A 0.44 0.44 0.0 0 0 655.07 842.55   L 655.07 881.36   A 0.52 0.52 0.0 0 0 655.59 881.88   L 695.50 881.88   A 0.66 0.66 0.0 0 1 696.16 882.54   L 696.16 962.44   A 0.44 0.43 90.0 0 1 695.73 962.88   L 369.67 962.88   A 0.78 0.77 -90.0 0 1 368.90 962.10   L 368.90 882.31   A 0.37 0.37 0.0 0 0 368.53 881.94   L 286.93 881.92   L 286.94 842.67   A 0.80 0.79 0.0 0 1 287.74 841.88   L 329.80 841.91   L 369.22 841.98   L 450.95 842.05   L 450.96 881.44   A 0.52 0.52 0.0 0 1 450.44 881.96   L 410.13 881.96   A 0.27 0.27 0.0 0 0 409.86 882.23   L 409.86 921.66   A 0.39 0.39 0.0 0 0 410.25 922.05   L 531.25 922.05   A 0.84 0.84 0.0 0 0 532.09 921.21   L 532.09 882.53   A 0.59 0.58 -90.0 0 0 531.51 881.94   L 492.29 881.94   A 0.54 0.54 0.0 0 1 491.75 881.40   L 491.68 841.89   L 532.54 841.97   L 573.20 842.25   L 573.30 921.31   A 0.72 0.72 0.0 0 0 574.02 922.03   L 654.49 922.03   A 0.54 0.54 0.0 0 0 655.03 921.49   L 655.03 882.70   A 0.72 0.72 0.0 0 0 654.31 881.98   L 614.76 881.98   A 0.80 0.80 0.0 0 1 613.96 881.18   L 613.92 842.01   L 654.41 841.92   A 0.55 0.55 0.0 0 0 654.96 841.37   L 654.96 802.74   A 0.84 0.84 0.0 0 1 655.80 801.90   L 695.79 801.92   Z"/>
<path xmlns="http://www.w3.org/2000/svg" fill="#eeedfd" d="   M 368.32 802.09   C 369.74 815.47 368.63 828.62 369.22 841.98   L 329.80 841.91   Q 328.36 837.09 328.18 832.09   Q 327.66 817.91 327.59 803.38   A 1.19 1.19 0.0 0 1 328.78 802.18   L 368.32 802.09   Z"/>
<path xmlns="http://www.w3.org/2000/svg" fill="#fee2ee" d="   M 491.68 841.89   L 491.75 881.40   A 0.54 0.54 0.0 0 0 492.29 881.94   L 531.51 881.94   A 0.59 0.58 90.0 0 1 532.09 882.53   L 532.09 921.21   A 0.84 0.84 0.0 0 1 531.25 922.05   L 410.25 922.05   A 0.39 0.39 0.0 0 1 409.86 921.66   L 409.86 882.23   A 0.27 0.27 0.0 0 1 410.13 881.96   L 450.44 881.96   A 0.52 0.52 0.0 0 0 450.96 881.44   L 450.95 842.05   L 491.68 841.89   Z"/>
<path xmlns="http://www.w3.org/2000/svg" fill="#fee2ee" d="   M 613.92 842.01   L 613.96 881.18   A 0.80 0.80 0.0 0 0 614.76 881.98   L 654.31 881.98   A 0.72 0.72 0.0 0 1 655.03 882.70   L 655.03 921.49   A 0.54 0.54 0.0 0 1 654.49 922.03   L 574.02 922.03   A 0.72 0.72 0.0 0 1 573.30 921.31   L 573.20 842.25   L 613.92 842.01   Z"/>
<path xmlns="http://www.w3.org/2000/svg" fill="#000000" d="   M 163.88 842.00   L 163.95 880.90   Q 163.98 881.86 163.24 881.95   L 123.93 881.90   A 0.79 0.79 0.0 0 0 123.14 882.69   L 123.14 921.51   A 0.56 0.55 -90.0 0 0 123.69 922.07   L 165.85 922.07   L 204.13 922.01   A 0.87 0.87 0.0 0 0 205.00 921.14   L 204.96 881.86   L 245.32 881.90   L 286.93 881.92   L 286.92 921.61   A 0.57 0.56 0.0 0 1 286.35 922.17   L 205.82 922.17   A 0.59 0.59 0.0 0 0 205.23 922.76   L 205.23 962.43   A 0.45 0.45 0.0 0 1 204.78 962.88   L 82.46 962.88   A 0.58 0.58 0.0 0 1 81.88 962.30   L 81.88 882.70   A 0.82 0.81 -0.0 0 1 82.70 881.89   L 122.34 881.89   A 0.59 0.59 0.0 0 0 122.93 881.30   L 122.93 842.66   A 0.73 0.72 0.0 0 1 123.66 841.94   L 163.88 842.00   Z"/>
<path xmlns="http://www.w3.org/2000/svg" fill="#dedefd" d="   M 204.96 881.86   L 205.00 921.14   A 0.87 0.87 0.0 0 1 204.13 922.01   L 165.85 922.07   Q 163.90 914.37 163.72 906.73   Q 163.44 894.40 163.24 881.95   Q 163.98 881.86 163.95 880.90   L 204.96 881.86   Z"/>
<path xmlns="http://www.w3.org/2000/svg" fill="#eeedfd" d="   M 163.24 881.95   Q 163.44 894.40 163.72 906.73   Q 163.90 914.37 165.85 922.07   L 123.69 922.07   A 0.56 0.55 -90.0 0 1 123.14 921.51   L 123.14 882.69   A 0.79 0.79 0.0 0 1 123.93 881.90   L 163.24 881.95   Z"/>
</g></g></g></g></svg>