<svg xmlns="http://www.w3.org/2000/svg" viewBox="0 0 64 64" shape-rendering="crispEdges">
  <rect width="64" height="64" rx="14" fill="#050505"/>

  <g transform="translate(10 10) scale(2)" fill="#ffffff">
    <rect x="11" y="2" width="1" height="1"/>
    <rect x="10" y="3" width="2" height="1"/>
    <rect x="10" y="4" width="3" height="1"/>
    <rect x="9" y="5" width="4" height="1"/>

    <rect x="4" y="6" width="2" height="1"/>
    <rect x="8" y="6" width="6" height="1"/>

    <rect x="4" y="7" width="10" height="1"/>
    <rect x="4" y="8" width="11" height="1"/>
    <rect x="3" y="9" width="12" height="1"/>
    <rect x="3" y="10" width="12" height="1"/>
    <rect x="3" y="11" width="13" height="1"/>
    <rect x="2" y="12" width="14" height="1"/>
    <rect x="2" y="13" width="15" height="1"/>
    <rect x="2" y="14" width="15" height="1"/>
    <rect x="3" y="15" width="15" height="1"/>
    <rect x="4" y="16" width="14" height="1"/>
    <rect x="5" y="17" width="13" height="1"/>
    <rect x="4" y="18" width="14" height="1"/>
  </g>

  <g transform="translate(10 10) scale(2)" fill="#050505">
    <rect x="5" y="10" width="1" height="3"/>
  </g>
</svg>
