<svg xmlns="http://www.w3.org/2000/svg" direction="ltr" width="1024" height="1024" viewBox="3903.0245902554343 3496.3191701163178 1024 1024" stroke-linecap="round" stroke-linejoin="round" data-color-mode="light" class="tl-container tl-theme__force-sRGB tl-theme__light" style="background-color: transparent;"><defs/><g transform="matrix(1, 0, 0, 1, 3903.0246, 3496.3192)" opacity="1"><g data-lovart-layer-name="SVG 1"><g transform="scale(1, 1)"><g>
<g xmlns="http://www.w3.org/2000/svg" stroke-width="2.00" fill="none" stroke-linecap="butt">
<path stroke="#fff6cd" vector-effect="non-scaling-stroke" d="   M 368.66 112.75   L 368.66 194.59"/>
<path stroke="#808080" vector-effect="non-scaling-stroke" d="   M 368.66 194.59   L 368.81 234.97   A 0.50 0.50 0.0 0 0 369.31 235.47   L 409.72 235.63"/>
<path stroke="#fff6cd" vector-effect="non-scaling-stroke" d="   M 409.72 235.63   Q 409.72 235.54 409.72 235.45"/>
<path stroke="#808080" vector-effect="non-scaling-stroke" d="   M 409.72 235.45   L 409.65 275.65   A 0.74 0.74 0.0 0 1 408.91 276.39   L 369.08 276.39   A 0.39 0.39 0.0 0 0 368.69 276.78   L 368.87 317.31"/>
<path stroke="#f5eabf" vector-effect="non-scaling-stroke" d="   M 368.87 317.31   Q 368.62 317.43 368.42 317.39"/>
<path stroke="#808080" vector-effect="non-scaling-stroke" d="   M 368.42 317.39   L 328.20 317.40   A 0.57 0.57 0.0 0 0 327.63 317.97   L 327.63 480.84   A 0.59 0.58 -0.0 0 0 328.22 481.42   L 368.16 481.41"/>
<path stroke="#f2c6c2" vector-effect="non-scaling-stroke" d="   M 368.16 481.41   Q 368.30 481.81 368.66 481.99"/>
<path stroke="#808080" vector-effect="non-scaling-stroke" d="   M 368.66 481.99   L 368.74 522.27"/>
<path stroke="#fffefa" vector-effect="non-scaling-stroke" d="   M 368.74 522.27   Q 368.75 522.18 368.75 522.09"/>
<path stroke="#808080" vector-effect="non-scaling-stroke" d="   M 368.75 522.09   L 328.09 522.05   A 0.45 0.45 0.0 0 0 327.64 522.50   L 327.64 600.96   A 0.50 0.50 0.0 0 1 327.14 601.46   L 286.97 601.46   A 0.37 0.36 -90.0 0 0 286.61 601.83   Q 286.67 612.88 286.62 640.50   Q 286.61 641.20 287.23 642.04"/>
<path stroke="#fffefa" vector-effect="non-scaling-stroke" d="   M 287.23 642.04   Q 287.45 641.73 286.67 642.13"/>
<path stroke="#808080" vector-effect="non-scaling-stroke" d="   M 286.67 642.13   L 246.11 641.82   A 0.53 0.52 0.0 0 0 245.58 642.34   L 245.58 721.51   A 0.28 0.27 0.0 0 1 245.30 721.78   L 205.28 721.78   A 0.55 0.54 90.0 0 0 204.74 722.33   L 204.74 801.17   A 0.46 0.46 0.0 0 1 204.28 801.63   L 164.30 801.63   A 0.56 0.56 0.0 0 0 163.74 802.19   Q 163.78 818.45 163.77 841.23   Q 163.77 841.70 164.22 841.90"/>
<path stroke="#fff6cd" vector-effect="non-scaling-stroke" d="   M 164.22 841.90   Q 163.95 842.02 163.78 842.21"/>
<path stroke="#808080" vector-effect="non-scaling-stroke" d="   M 163.78 842.21   Q 163.82 842.01 163.61 841.85   A 0.37 0.36 -25.1 0 0 163.38 841.77   L 123.43 841.77   A 0.64 0.63 -90.0 0 0 122.80 842.41   L 122.80 881.26   A 0.41 0.41 0.0 0 1 122.39 881.67   L 82.36 881.67   A 0.52 0.52 0.0 0 0 81.84 882.19   L 81.84 962.14   A 0.58 0.57 -0.0 0 0 82.42 962.71   L 204.33 962.71   A 0.52 0.52 0.0 0 0 204.85 962.19   L 204.85 923.10   A 0.88 0.88 0.0 0 1 205.73 922.22   L 286.10 922.22   A 0.62 0.62 0.0 0 0 286.72 921.60   L 286.67 882.22"/>
<path stroke="#f5eabf" vector-effect="non-scaling-stroke" d="   M 286.67 882.22   Q 287.50 881.81 288.20 881.86"/>
<path stroke="#808080" vector-effect="non-scaling-stroke" d="   M 288.20 881.86   L 368.14 881.86   A 0.61 0.61 0.0 0 1 368.75 882.47   L 368.75 962.23   A 0.47 0.47 0.0 0 0 369.22 962.70   L 695.90 962.70   A 0.51 0.51 0.0 0 0 696.41 962.19   L 696.41 882.17   A 0.49 0.49 0.0 0 0 695.92 881.68   L 655.66 881.68   A 0.37 0.36 -0.0 0 1 655.29 881.32   L 655.29 842.31   A 0.28 0.27 0.0 0 1 655.57 842.04   L 695.99 842.04   A 0.40 0.39 -0.0 0 0 696.39 841.65   L 696.39 802.29   A 0.44 0.44 0.0 0 1 696.83 801.85   L 736.98 801.85   A 0.46 0.46 0.0 0 0 737.44 801.39   L 737.44 722.61   A 0.55 0.55 0.0 0 1 737.99 722.06   L 778.00 722.06   A 0.38 0.38 0.0 0 0 778.38 721.68   L 778.38 522.57   A 0.52 0.51 90.0 0 0 777.87 522.05   L 738.18 522.05   A 0.79 0.79 0.0 0 1 737.39 521.26   L 737.39 481.92   A 0.50 0.50 0.0 0 1 737.89 481.42   L 818.80 481.42   A 0.37 0.37 0.0 0 0 819.17 481.05   L 819.17 399.81   A 0.47 0.46 -0.0 0 0 818.70 399.35   L 778.70 399.35   A 0.31 0.31 0.0 0 1 778.39 399.04   L 778.39 359.01   A 0.70 0.70 0.0 0 0 777.69 358.31   L 737.45 358.40"/>
<path stroke="#ffb380" vector-effect="non-scaling-stroke" d="   M 737.45 358.40   Q 737.04 357.97 737.35 358.18"/>
<path stroke="#808080" vector-effect="non-scaling-stroke" d="   M 737.35 358.18   L 737.35 317.71   A 0.33 0.33 0.0 0 0 737.02 317.38   L 696.69 317.38   A 0.36 0.36 0.0 0 1 696.33 317.02   L 696.33 276.71   A 0.41 0.40 0.0 0 0 695.92 276.31   L 655.21 276.33"/>
<path stroke="#fff6cd" vector-effect="non-scaling-stroke" d="   M 655.21 276.33   Q 655.27 276.37 655.33 276.41"/>
<path stroke="#808080" vector-effect="non-scaling-stroke" d="   M 655.33 276.41   L 655.24 235.79   A 0.28 0.28 0.0 0 0 654.96 235.51   L 614.83 235.51   A 0.45 0.44 90.0 0 1 614.39 235.06   L 614.39 195.16   A 0.58 0.58 0.0 0 0 613.81 194.58   L 451.25 194.58   A 0.54 0.54 0.0 0 1 450.71 194.04   L 450.71 72.05   A 0.47 0.46 0.0 0 0 450.24 71.59   L 369.06 71.59   A 0.33 0.33 0.0 0 0 368.73 71.92   L 368.66 112.75"/>
<path stroke="#7f774d" vector-effect="non-scaling-stroke" d="   M 655.33 276.41   L 614.67 276.42   A 0.34 0.34 0.0 0 1 614.33 276.08   L 614.33 236.34   A 0.71 0.71 0.0 0 0 613.62 235.63   L 451.17 235.63   A 0.47 0.47 0.0 0 1 450.70 235.16   L 450.70 195.20   A 0.58 0.57 -90.0 0 0 450.13 194.62   L 410.27 194.62   A 0.58 0.57 0.0 0 0 409.69 195.19   L 409.72 235.63"/>
<path stroke="#7f774d" vector-effect="non-scaling-stroke" d="   M 368.66 194.59   L 408.99 194.58   A 0.73 0.72 -0.0 0 0 409.72 193.86   L 409.72 113.43   A 0.67 0.67 0.0 0 0 409.05 112.76   L 368.66 112.75"/>
<path stroke="#7f774d" vector-effect="non-scaling-stroke" d="   M 655.21 276.33   L 655.17 317.06   A 0.39 0.39 0.0 0 0 655.56 317.45   L 695.81 317.45   A 0.42 0.42 0.0 0 1 696.23 317.87   L 696.25 358.49"/>
<path stroke="#ffaa4d" vector-effect="non-scaling-stroke" d="   M 696.25 358.49   L 655.98 358.37   A 0.87 0.87 0.0 0 0 655.11 359.24   L 655.11 480.24   A 1.04 1.03 0.3 0 0 656.14 481.27   Q 663.28 481.32 677.00 481.62   Q 686.46 481.82 696.24 481.21"/>
<path stroke="#7f774d" vector-effect="non-scaling-stroke" d="   M 696.24 481.21   L 696.30 521.49   A 0.54 0.53 -88.3 0 0 696.80 522.03   L 705.85 522.53"/>
<path stroke="#fff5c7" vector-effect="non-scaling-stroke" d="   M 705.85 522.53   Q 712.23 525.35 721.21 525.13   Q 732.67 524.84 737.38 524.39"/>
<path stroke="#7f774d" vector-effect="non-scaling-stroke" d="   M 737.38 524.39   L 737.48 560.71"/>
<path stroke="#fff5c7" vector-effect="non-scaling-stroke" d="   M 737.48 560.71   Q 736.59 560.53 734.12 562.49   A 0.56 0.54 22.0 0 1 733.79 562.62   C 718.24 563.35 701.61 562.85 687.23 562.94   Q 631.69 563.28 533.60 563.08   A 1.01 1.01 0.0 0 1 532.59 562.07   L 532.59 523.68   A 1.46 1.45 0.2 0 0 531.14 522.23   L 409.64 522.14"/>
<path stroke="#7f774d" vector-effect="non-scaling-stroke" d="   M 409.64 522.14   L 409.63 485.05"/>
<path stroke="#f4e18d" vector-effect="non-scaling-stroke" d="   M 409.63 485.05   L 409.61 318.32   A 1.04 1.04 0.0 0 1 410.65 317.28   L 449.52 317.28   A 1.14 1.13 -89.5 0 0 450.65 316.16   Q 450.81 306.77 450.60 298.42   C 450.44 292.47 450.94 285.93 451.02 280.75   Q 451.04 278.80 450.13 276.44"/>
<path stroke="#7f774d" vector-effect="non-scaling-stroke" d="   M 450.13 276.44   Q 450.61 276.55 450.65 275.87"/>
<path stroke="#f4e18d" vector-effect="non-scaling-stroke" d="   M 450.65 275.87   C 452.98 276.33 455.29 276.75 457.69 276.68   Q 474.86 276.17 491.42 276.39   A 0.48 0.47 -1.1 0 0 491.90 275.90   Q 491.47 259.92 492.22 240.46   Q 492.28 238.80 491.56 237.56   A 0.83 0.82 -16.0 0 0 490.79 237.14   C 484.54 237.49 480.68 237.92 475.83 237.75   C 466.00 237.40 461.17 236.89 454.69 237.86   A 1.11 1.10 0.3 0 0 453.76 238.77   C 452.31 247.12 452.37 256.65 451.88 264.32   Q 451.77 266.05 450.67 268.82"/>
<path stroke="#7f774d" vector-effect="non-scaling-stroke" d="   M 450.67 268.82   L 450.68 236.04   A 0.55 0.54 -90.0 0 0 450.14 235.49   L 409.72 235.45"/>
<path stroke="#807f7a" vector-effect="non-scaling-stroke" d="   M 409.64 522.14   L 368.74 522.27"/>
<path stroke="#803400" vector-effect="non-scaling-stroke" d="   M 737.45 358.40   L 737.30 398.81   A 0.48 0.48 0.0 0 0 737.78 399.29   L 777.49 399.29   A 0.70 0.70 0.0 0 1 778.19 399.99   L 778.19 439.65   A 0.69 0.69 0.0 0 1 777.50 440.34   L 696.80 440.34   A 0.61 0.61 0.0 0 0 696.19 440.95   L 696.24 481.21"/>
<path stroke="#efead9" vector-effect="non-scaling-stroke" d="   M 737.50 682.02   L 696.98 681.78   A 0.69 0.69 0.0 0 0 696.28 682.47   Q 696.27 701.69 696.06 720.87   Q 696.06 721.22 696.46 721.60"/>
<path stroke="#efead9" vector-effect="non-scaling-stroke" d="   M 696.29 762.13   L 656.14 762.28   A 0.72 0.72 0.0 0 0 655.42 763.00   L 655.45 801.83"/>
<path stroke="#efead9" vector-effect="non-scaling-stroke" d="   M 655.10 802.14   L 533.27 801.85   A 0.88 0.87 -90.0 0 0 532.40 802.73   L 532.49 841.79"/>
<path stroke="#ffd7cc" vector-effect="non-scaling-stroke" d="   M 491.81 841.71   L 450.63 841.82"/>
<path stroke="#efead9" vector-effect="non-scaling-stroke" d="   M 368.70 841.81   L 368.62 802.63   A 0.78 0.77 -90.0 0 1 369.39 801.85   L 449.71 801.85   A 0.85 0.85 0.0 0 0 450.56 801.00   L 450.56 763.32   A 0.74 0.74 0.0 0 1 451.30 762.58   L 490.63 762.58   A 0.93 0.92 -0.0 0 0 491.56 761.66   Q 491.59 750.82 491.79 734.75   Q 491.88 727.51 491.18 722.60   A 0.60 0.59 86.1 0 0 490.59 722.08   L 410.30 722.08   A 0.59 0.59 0.0 0 0 409.71 722.67   L 409.71 761.38   A 0.98 0.98 0.0 0 1 408.73 762.36   L 286.55 762.43"/>
<path stroke="#fff5c7" vector-effect="non-scaling-stroke" d="   M 286.55 762.43   L 245.82 762.50"/>
<path stroke="#807f7a" vector-effect="non-scaling-stroke" d="   M 245.82 762.50   L 245.79 722.36   A 0.28 0.28 0.0 0 1 246.07 722.08   L 286.26 722.08   A 0.44 0.44 0.0 0 0 286.70 721.64   L 286.67 642.13"/>
<path stroke="#807f7a" vector-effect="non-scaling-stroke" d="   M 287.23 642.04   L 327.27 642.05   A 0.41 0.40 -90.0 0 0 327.67 641.64   L 327.67 602.27   A 0.57 0.56 0.0 0 1 328.24 601.71   L 368.46 601.71   A 0.31 0.30 0.0 0 0 368.77 601.41   L 368.75 522.09"/>
<path stroke="#803400" vector-effect="non-scaling-stroke" d="   M 737.35 358.18   Q 736.55 358.55 735.78 358.54   Q 715.99 358.47 696.25 358.49"/>
<path stroke="#756b40" vector-effect="non-scaling-stroke" d="   M 450.67 268.82   L 450.65 275.87"/>
<path stroke="#756b40" vector-effect="non-scaling-stroke" d="   M 450.13 276.44   L 410.40 276.43   A 0.76 0.76 0.0 0 0 409.64 277.19   L 409.64 316.98   A 0.37 0.36 -0.0 0 1 409.27 317.34   L 368.87 317.31"/>
<path stroke="#756b40" vector-effect="non-scaling-stroke" d="   M 288.20 881.86   Q 286.67 882.26 286.67 880.25   Q 286.66 861.25 286.62 842.56   A 0.78 0.77 -90.0 0 1 287.39 841.78   L 326.47 841.77"/>
<path stroke="#706b5f" vector-effect="non-scaling-stroke" d="   M 326.47 841.77   L 368.70 841.81"/>
<path stroke="#807f7a" vector-effect="non-scaling-stroke" d="   M 368.70 841.81   L 450.63 841.82"/>
<path stroke="#805952" vector-effect="non-scaling-stroke" d="   M 450.63 841.82   L 450.58 881.85"/>
<path stroke="#734743" vector-effect="non-scaling-stroke" d="   M 450.58 881.85   L 410.09 881.89   A 0.46 0.46 0.0 0 0 409.63 882.35   L 409.63 921.47   A 0.62 0.62 0.0 0 0 410.25 922.09   L 449.93 922.13"/>
<path stroke="#805952" vector-effect="non-scaling-stroke" d="   M 449.93 922.13   L 531.82 922.10   A 0.56 0.56 0.0 0 0 532.38 921.54   L 532.38 882.38   A 0.59 0.58 -90.0 0 0 531.80 881.79   L 492.28 881.79   A 0.52 0.52 0.0 0 1 491.76 881.27   L 491.81 841.71"/>
<path stroke="#807f7a" vector-effect="non-scaling-stroke" d="   M 491.81 841.71   L 532.49 841.79"/>
<path stroke="#706b5f" vector-effect="non-scaling-stroke" d="   M 532.49 841.79   L 573.42 841.84"/>
<path stroke="#734743" vector-effect="non-scaling-stroke" d="   M 573.42 841.84   L 573.46 880.71"/>
<path stroke="#805952" vector-effect="non-scaling-stroke" d="   M 573.46 880.71   L 573.54 921.61   A 0.52 0.52 0.0 0 0 574.06 922.13   L 654.57 922.13   A 0.68 0.68 0.0 0 0 655.25 921.45   L 655.25 882.73   A 0.94 0.94 0.0 0 0 654.31 881.79   L 614.35 881.82"/>
<path stroke="#734743" vector-effect="non-scaling-stroke" d="   M 614.35 881.82   L 614.35 841.86"/>
<path stroke="#706b5f" vector-effect="non-scaling-stroke" d="   M 614.35 841.86   L 654.69 841.83   A 0.44 0.43 90.0 0 0 655.12 841.39   L 655.10 802.14"/>
<path stroke="#807f7a" vector-effect="non-scaling-stroke" d="   M 655.10 802.14   Q 655.43 802.04 655.45 801.83"/>
<path stroke="#706b5f" vector-effect="non-scaling-stroke" d="   M 655.45 801.83   L 695.52 801.68   A 0.71 0.71 0.0 0 0 696.22 800.98   L 696.29 762.13"/>
<path stroke="#807f7a" vector-effect="non-scaling-stroke" d="   M 696.29 762.13   L 696.16 722.52   A 0.94 0.89 -35.3 0 1 696.23 722.17   L 696.46 721.60"/>
<path stroke="#706b5f" vector-effect="non-scaling-stroke" d="   M 696.46 721.60   L 736.63 721.85   A 0.76 0.76 0.0 0 0 737.39 721.10   L 737.50 682.02"/>
<path stroke="#807f7a" vector-effect="non-scaling-stroke" d="   M 737.50 682.02   L 737.48 560.71"/>
<path stroke="#807f7a" vector-effect="non-scaling-stroke" d="   M 737.38 524.39   L 737.23 522.92   A 0.60 0.59 -2.6 0 0 736.63 522.38   L 705.85 522.53"/>
<path stroke="#756b40" vector-effect="non-scaling-stroke" d="   M 409.63 485.05   L 409.25 481.76   A 0.62 0.61 86.9 0 0 408.64 481.21   L 370.80 481.23"/>
<path stroke="#e8b182" vector-effect="non-scaling-stroke" d="   M 370.80 481.23   Q 369.08 481.19 368.69 479.96"/>
<path stroke="#756b40" vector-effect="non-scaling-stroke" d="   M 368.69 479.96   L 368.61 318.14   A 1.17 1.17 0.0 0 0 368.55 317.77   Q 368.49 317.60 368.42 317.39"/>
<path stroke="#734743" vector-effect="non-scaling-stroke" d="   M 370.80 481.23   Q 368.98 480.96 368.66 481.99"/>
<path stroke="#f29f95" vector-effect="non-scaling-stroke" d="   M 449.93 922.13   Q 450.23 918.87 450.52 915.72   Q 450.88 911.93 450.87 909.27   Q 450.85 898.62 450.93 887.97   Q 450.94 887.27 450.70 884.91   Q 450.56 883.43 450.58 881.85"/>
<path stroke="#f4e18d" vector-effect="non-scaling-stroke" d="   M 286.86 801.54   L 286.28 840.94   A 0.86 0.86 0.0 0 1 285.42 841.79   L 246.44 841.79   A 1.00 1.00 0.0 0 0 245.44 842.81   L 246.06 881.76"/>
<path stroke="#7f774d" vector-effect="non-scaling-stroke" d="   M 246.06 881.76   L 204.69 881.70"/>
<path stroke="#f4e18d" vector-effect="non-scaling-stroke" d="   M 204.69 881.70   L 165.11 881.85   A 1.69 1.68 -89.8 0 0 163.43 883.53   Q 163.41 900.57 163.89 915.75   Q 163.94 917.55 164.93 922.18"/>
<path stroke="#7f774d" vector-effect="non-scaling-stroke" d="   M 164.93 922.18   L 123.63 922.12   A 0.61 0.61 0.0 0 1 123.02 921.51   L 123.02 882.44   A 0.62 0.62 0.0 0 1 123.64 881.82   L 163.44 881.82   A 0.43 0.43 0.0 0 0 163.87 881.39   L 163.78 842.21"/>
<path stroke="#e5d69e" vector-effect="non-scaling-stroke" d="   M 326.47 841.77   Q 329.02 838.31 328.36 833.50   Q 327.38 826.31 327.19 815.51   C 327.13 812.00 327.57 808.80 327.49 805.20   C 327.45 802.94 326.40 801.83 324.25 801.89   Q 305.45 802.45 286.86 801.54"/>
<path stroke="#efe2ac" vector-effect="non-scaling-stroke" d="   M 286.86 801.54   L 286.55 762.43"/>
<path stroke="#e2b2a1" vector-effect="non-scaling-stroke" d="   M 614.35 841.86   L 573.42 841.84"/>
<path stroke="#7f774d" vector-effect="non-scaling-stroke" d="   M 245.82 762.50   L 245.77 801.22   A 0.64 0.63 0.0 0 1 245.13 801.85   L 205.43 801.85   A 0.56 0.56 0.0 0 0 204.87 802.41   L 204.87 841.44   A 0.40 0.39 -0.0 0 1 204.47 841.83   L 164.22 841.90"/>
<path stroke="#f29f95" vector-effect="non-scaling-stroke" d="   M 614.35 881.82   Q 613.37 881.77 612.42 881.96   Q 611.24 882.19 610.50 882.16   Q 596.69 881.45 580.75 881.80   Q 577.48 881.87 573.46 880.71"/>
<path stroke="#756b40" vector-effect="non-scaling-stroke" d="   M 286.67 882.22   L 246.06 881.76"/>
<path stroke="#734743" vector-effect="non-scaling-stroke" d="   M 368.69 479.96   Q 368.82 481.14 368.16 481.41"/>
<path stroke="#756b40" vector-effect="non-scaling-stroke" d="   M 164.93 922.18   L 203.82 922.10   A 1.00 1.00 0.0 0 0 204.82 921.10   L 204.69 881.70"/>
<path stroke="#7f774d" vector-effect="non-scaling-stroke" d="   M 614.28 317.94   A 0.50 0.50 0.0 0 0 613.78 317.44   L 573.94 317.44   A 0.50 0.50 0.0 0 0 573.44 317.94   L 573.44 398.86   A 0.50 0.50 0.0 0 0 573.94 399.36   L 613.78 399.36   A 0.50 0.50 0.0 0 0 614.28 398.86   L 614.28 317.94"/>
<path stroke="#ffcf9f" vector-effect="non-scaling-stroke" d="   M 573.5194 400.6415   A 1.09 1.09 0.0 0 0 572.4313 399.5496   L 492.7114 399.4105   A 1.09 1.09 0.0 0 0 491.6195 400.4986   L 491.4806 480.0985   A 1.09 1.09 0.0 0 0 492.5687 481.1904   L 572.2886 481.3295   A 1.09 1.09 0.0 0 0 573.3805 480.2414   L 573.5194 400.6415"/>
<path stroke="#efead9" vector-effect="non-scaling-stroke" d="   M 533.47 601.51   A 0.73 0.73 0.0 0 1 532.74 600.79   L 532.09 563.91   A 0.73 0.73 0.0 0 0 531.36 563.19   L 492.38 563.19   A 0.73 0.73 0.0 0 0 491.65 563.92   L 491.65 600.99   A 0.73 0.73 0.0 0 0 492.38 601.72   L 531.68 601.72   A 0.73 0.73 0.0 0 1 532.41 602.45   L 532.41 681.12   A 0.73 0.73 0.0 0 0 533.14 681.85   L 572.79 681.85   A 0.73 0.73 0.0 0 0 573.52 681.12   L 573.52 602.24   A 0.73 0.73 0.0 0 0 572.79 601.51   L 533.47 601.51"/>
<path stroke="#efead9" vector-effect="non-scaling-stroke" d="   M 532.2765 682.7647   A 0.79 0.79 0.0 0 0 531.4851 681.9761   L 492.5852 682.0440   A 0.79 0.79 0.0 0 0 491.7965 682.8354   L 491.8635 721.2153   A 0.79 0.79 0.0 0 0 492.6549 722.0039   L 531.5548 721.9360   A 0.79 0.79 0.0 0 0 532.3435 721.1446   L 532.2765 682.7647"/>
</g>
<path xmlns="http://www.w3.org/2000/svg" fill="#ffffff" d="   M 1024.00 0.00   L 1024.00 1024.00   L 0.00 1024.00   L 0.00 0.00   L 1024.00 0.00   Z   M 368.66 112.75   L 368.66 194.59   L 368.81 234.97   A 0.50 0.50 0.0 0 0 369.31 235.47   L 409.72 235.63   Q 409.72 235.54 409.72 235.45   L 409.65 275.65   A 0.74 0.74 0.0 0 1 408.91 276.39   L 369.08 276.39   A 0.39 0.39 0.0 0 0 368.69 276.78   L 368.87 317.31   Q 368.62 317.43 368.42 317.39   L 328.20 317.40   A 0.57 0.57 0.0 0 0 327.63 317.97   L 327.63 480.84   A 0.59 0.58 -0.0 0 0 328.22 481.42   L 368.16 481.41   Q 368.30 481.81 368.66 481.99   L 368.74 522.27   Q 368.75 522.18 368.75 522.09   L 328.09 522.05   A 0.45 0.45 0.0 0 0 327.64 522.50   L 327.64 600.96   A 0.50 0.50 0.0 0 1 327.14 601.46   L 286.97 601.46   A 0.37 0.36 -90.0 0 0 286.61 601.83   Q 286.67 612.88 286.62 640.50   Q 286.61 641.20 287.23 642.04   Q 287.45 641.73 286.67 642.13   L 246.11 641.82   A 0.53 0.52 0.0 0 0 245.58 642.34   L 245.58 721.51   A 0.28 0.27 0.0 0 1 245.30 721.78   L 205.28 721.78   A 0.55 0.54 90.0 0 0 204.74 722.33   L 204.74 801.17   A 0.46 0.46 0.0 0 1 204.28 801.63   L 164.30 801.63   A 0.56 0.56 0.0 0 0 163.74 802.19   Q 163.78 818.45 163.77 841.23   Q 163.77 841.70 164.22 841.90   Q 163.95 842.02 163.78 842.21   Q 163.82 842.01 163.61 841.85   A 0.37 0.36 -25.1 0 0 163.38 841.77   L 123.43 841.77   A 0.64 0.63 -90.0 0 0 122.80 842.41   L 122.80 881.26   A 0.41 0.41 0.0 0 1 122.39 881.67   L 82.36 881.67   A 0.52 0.52 0.0 0 0 81.84 882.19   L 81.84 962.14   A 0.58 0.57 -0.0 0 0 82.42 962.71   L 204.33 962.71   A 0.52 0.52 0.0 0 0 204.85 962.19   L 204.85 923.10   A 0.88 0.88 0.0 0 1 205.73 922.22   L 286.10 922.22   A 0.62 0.62 0.0 0 0 286.72 921.60   L 286.67 882.22   Q 287.50 881.81 288.20 881.86   L 368.14 881.86   A 0.61 0.61 0.0 0 1 368.75 882.47   L 368.75 962.23   A 0.47 0.47 0.0 0 0 369.22 962.70   L 695.90 962.70   A 0.51 0.51 0.0 0 0 696.41 962.19   L 696.41 882.17   A 0.49 0.49 0.0 0 0 695.92 881.68   L 655.66 881.68   A 0.37 0.36 -0.0 0 1 655.29 881.32   L 655.29 842.31   A 0.28 0.27 0.0 0 1 655.57 842.04   L 695.99 842.04   A 0.40 0.39 -0.0 0 0 696.39 841.65   L 696.39 802.29   A 0.44 0.44 0.0 0 1 696.83 801.85   L 736.98 801.85   A 0.46 0.46 0.0 0 0 737.44 801.39   L 737.44 722.61   A 0.55 0.55 0.0 0 1 737.99 722.06   L 778.00 722.06   A 0.38 0.38 0.0 0 0 778.38 721.68   L 778.38 522.57   A 0.52 0.51 90.0 0 0 777.87 522.05   L 738.18 522.05   A 0.79 0.79 0.0 0 1 737.39 521.26   L 737.39 481.92   A 0.50 0.50 0.0 0 1 737.89 481.42   L 818.80 481.42   A 0.37 0.37 0.0 0 0 819.17 481.05   L 819.17 399.81   A 0.47 0.46 -0.0 0 0 818.70 399.35   L 778.70 399.35   A 0.31 0.31 0.0 0 1 778.39 399.04   L 778.39 359.01   A 0.70 0.70 0.0 0 0 777.69 358.31   L 737.45 358.40   Q 737.04 357.97 737.35 358.18   L 737.35 317.71   A 0.33 0.33 0.0 0 0 737.02 317.38   L 696.69 317.38   A 0.36 0.36 0.0 0 1 696.33 317.02   L 696.33 276.71   A 0.41 0.40 0.0 0 0 695.92 276.31   L 655.21 276.33   Q 655.27 276.37 655.33 276.41   L 655.24 235.79   A 0.28 0.28 0.0 0 0 654.96 235.51   L 614.83 235.51   A 0.45 0.44 90.0 0 1 614.39 235.06   L 614.39 195.16   A 0.58 0.58 0.0 0 0 613.81 194.58   L 451.25 194.58   A 0.54 0.54 0.0 0 1 450.71 194.04   L 450.71 72.05   A 0.47 0.46 0.0 0 0 450.24 71.59   L 369.06 71.59   A 0.33 0.33 0.0 0 0 368.73 71.92   L 368.66 112.75   Z"/>
<path xmlns="http://www.w3.org/2000/svg" fill="#000000" d="   M 655.33 276.41   L 614.67 276.42   A 0.34 0.34 0.0 0 1 614.33 276.08   L 614.33 236.34   A 0.71 0.71 0.0 0 0 613.62 235.63   L 451.17 235.63   A 0.47 0.47 0.0 0 1 450.70 235.16   L 450.70 195.20   A 0.58 0.57 -90.0 0 0 450.13 194.62   L 410.27 194.62   A 0.58 0.57 0.0 0 0 409.69 195.19   L 409.72 235.63   L 369.31 235.47   A 0.50 0.50 0.0 0 1 368.81 234.97   L 368.66 194.59   L 408.99 194.58   A 0.73 0.72 -0.0 0 0 409.72 193.86   L 409.72 113.43   A 0.67 0.67 0.0 0 0 409.05 112.76   L 368.66 112.75   L 368.73 71.92   A 0.33 0.33 0.0 0 1 369.06 71.59   L 450.24 71.59   A 0.47 0.46 -0.0 0 1 450.71 72.05   L 450.71 194.04   A 0.54 0.54 0.0 0 0 451.25 194.58   L 613.81 194.58   A 0.58 0.58 0.0 0 1 614.39 195.16   L 614.39 235.06   A 0.45 0.44 90.0 0 0 614.83 235.51   L 654.96 235.51   A 0.28 0.28 0.0 0 1 655.24 235.79   L 655.33 276.41   Z"/>
<path xmlns="http://www.w3.org/2000/svg" fill="#feed9a" d="   M 368.66 194.59   L 368.66 112.75   L 409.05 112.76   A 0.67 0.67 0.0 0 1 409.72 113.43   L 409.72 193.86   A 0.73 0.72 0.0 0 1 408.99 194.58   L 368.66 194.59   Z"/>
<path xmlns="http://www.w3.org/2000/svg" fill="#feed9a" d="   M 655.33 276.41   Q 655.27 276.37 655.21 276.33   L 655.17 317.06   A 0.39 0.39 0.0 0 0 655.56 317.45   L 695.81 317.45   A 0.42 0.42 0.0 0 1 696.23 317.87   L 696.25 358.49   L 655.98 358.37   A 0.87 0.87 0.0 0 0 655.11 359.24   L 655.11 480.24   A 1.04 1.03 0.3 0 0 656.14 481.27   Q 663.28 481.32 677.00 481.62   Q 686.46 481.82 696.24 481.21   L 696.30 521.49   A 0.54 0.53 -88.3 0 0 696.80 522.03   L 705.85 522.53   Q 712.23 525.35 721.21 525.13   Q 732.67 524.84 737.38 524.39   L 737.48 560.71   Q 736.59 560.53 734.12 562.49   A 0.56 0.54 22.0 0 1 733.79 562.62   C 718.24 563.35 701.61 562.85 687.23 562.94   Q 631.69 563.28 533.60 563.08   A 1.01 1.01 0.0 0 1 532.59 562.07   L 532.59 523.68   A 1.46 1.45 0.2 0 0 531.14 522.23   L 409.64 522.14   L 409.63 485.05   L 409.61 318.32   A 1.04 1.04 0.0 0 1 410.65 317.28   L 449.52 317.28   A 1.14 1.13 -89.5 0 0 450.65 316.16   Q 450.81 306.77 450.60 298.42   C 450.44 292.47 450.94 285.93 451.02 280.75   Q 451.04 278.80 450.13 276.44   Q 450.61 276.55 450.65 275.87   C 452.98 276.33 455.29 276.75 457.69 276.68   Q 474.86 276.17 491.42 276.39   A 0.48 0.47 -1.1 0 0 491.90 275.90   Q 491.47 259.92 492.22 240.46   Q 492.28 238.80 491.56 237.56   A 0.83 0.82 -16.0 0 0 490.79 237.14   C 484.54 237.49 480.68 237.92 475.83 237.75   C 466.00 237.40 461.17 236.89 454.69 237.86   A 1.11 1.10 0.3 0 0 453.76 238.77   C 452.31 247.12 452.37 256.65 451.88 264.32   Q 451.77 266.05 450.67 268.82   L 450.68 236.04   A 0.55 0.54 -90.0 0 0 450.14 235.49   L 409.72 235.45   Q 409.72 235.54 409.72 235.63   L 409.69 195.19   A 0.58 0.57 0.0 0 1 410.27 194.62   L 450.13 194.62   A 0.58 0.57 90.0 0 1 450.70 195.20   L 450.70 235.16   A 0.47 0.47 0.0 0 0 451.17 235.63   L 613.62 235.63   A 0.71 0.71 0.0 0 1 614.33 236.34   L 614.33 276.08   A 0.34 0.34 0.0 0 0 614.67 276.42   L 655.33 276.41   Z   M 614.28 317.94   A 0.50 0.50 0.0 0 0 613.78 317.44   L 573.94 317.44   A 0.50 0.50 0.0 0 0 573.44 317.94   L 573.44 398.86   A 0.50 0.50 0.0 0 0 573.94 399.36   L 613.78 399.36   A 0.50 0.50 0.0 0 0 614.28 398.86   L 614.28 317.94   Z   M 573.5194 400.6415   A 1.09 1.09 0.0 0 0 572.4313 399.5496   L 492.7114 399.4105   A 1.09 1.09 0.0 0 0 491.6195 400.4986   L 491.4806 480.0985   A 1.09 1.09 0.0 0 0 492.5687 481.1904   L 572.2886 481.3295   A 1.09 1.09 0.0 0 0 573.3805 480.2414   L 573.5194 400.6415   Z"/>
<path xmlns="http://www.w3.org/2000/svg" fill="#000000" d="   M 450.67 268.82   L 450.65 275.87   Q 450.61 276.55 450.13 276.44   L 410.40 276.43   A 0.76 0.76 0.0 0 0 409.64 277.19   L 409.64 316.98   A 0.37 0.36 -0.0 0 1 409.27 317.34   L 368.87 317.31   L 368.69 276.78   A 0.39 0.39 0.0 0 1 369.08 276.39   L 408.91 276.39   A 0.74 0.74 0.0 0 0 409.65 275.65   L 409.72 235.45   L 450.14 235.49   A 0.55 0.54 90.0 0 1 450.68 236.04   L 450.67 268.82   Z"/>
<path xmlns="http://www.w3.org/2000/svg" fill="#ead57f" d="   M 450.65 275.87   L 450.67 268.82   Q 451.77 266.05 451.88 264.32   C 452.37 256.65 452.31 247.12 453.76 238.77   A 1.11 1.10 0.3 0 1 454.69 237.86   C 461.17 236.89 466.00 237.40 475.83 237.75   C 480.68 237.92 484.54 237.49 490.79 237.14   A 0.83 0.82 -16.0 0 1 491.56 237.56   Q 492.28 238.80 492.22 240.46   Q 491.47 259.92 491.90 275.90   A 0.48 0.47 -1.1 0 1 491.42 276.39   Q 474.86 276.17 457.69 276.68   C 455.29 276.75 452.98 276.33 450.65 275.87   Z"/>
<path xmlns="http://www.w3.org/2000/svg" fill="#ead57f" d="   M 450.13 276.44   Q 451.04 278.80 451.02 280.75   C 450.94 285.93 450.44 292.47 450.60 298.42   Q 450.81 306.77 450.65 316.16   A 1.14 1.13 -89.5 0 1 449.52 317.28   L 410.65 317.28   A 1.04 1.04 0.0 0 0 409.61 318.32   L 409.63 485.05   L 409.25 481.76   A 0.62 0.61 86.9 0 0 408.64 481.21   L 370.80 481.23   Q 369.08 481.19 368.69 479.96   L 368.61 318.14   A 1.17 1.17 0.0 0 0 368.55 317.77   Q 368.49 317.60 368.42 317.39   Q 368.62 317.43 368.87 317.31   L 409.27 317.34   A 0.37 0.36 0.0 0 0 409.64 316.98   L 409.64 277.19   A 0.76 0.76 0.0 0 1 410.40 276.43   L 450.13 276.44   Z"/>
<path xmlns="http://www.w3.org/2000/svg" fill="#000000" d="   M 737.35 358.18   Q 736.55 358.55 735.78 358.54   Q 715.99 358.47 696.25 358.49   L 696.23 317.87   A 0.42 0.42 0.0 0 0 695.81 317.45   L 655.56 317.45   A 0.39 0.39 0.0 0 1 655.17 317.06   L 655.21 276.33   L 695.92 276.31   A 0.41 0.40 0.0 0 1 696.33 276.71   L 696.33 317.02   A 0.36 0.36 0.0 0 0 696.69 317.38   L 737.02 317.38   A 0.33 0.33 0.0 0 1 737.35 317.71   L 737.35 358.18   Z"/>
<path xmlns="http://www.w3.org/2000/svg" fill="#000000" d="   M 368.42 317.39   Q 368.49 317.60 368.55 317.77   A 1.17 1.17 0.0 0 1 368.61 318.14   L 368.69 479.96   Q 368.82 481.14 368.16 481.41   L 328.22 481.42   A 0.59 0.58 0.0 0 1 327.63 480.84   L 327.63 317.97   A 0.57 0.57 0.0 0 1 328.20 317.40   L 368.42 317.39   Z"/>
<rect xmlns="http://www.w3.org/2000/svg" fill="#000000" x="573.44" y="317.44" width="40.84" height="81.92" rx="0.50"/>
<path xmlns="http://www.w3.org/2000/svg" fill="#ff6700" d="   M 696.25 358.49   Q 715.99 358.47 735.78 358.54   Q 736.55 358.55 737.35 358.18   Q 737.04 357.97 737.45 358.40   L 737.30 398.81   A 0.48 0.48 0.0 0 0 737.78 399.29   L 777.49 399.29   A 0.70 0.70 0.0 0 1 778.19 399.99   L 778.19 439.65   A 0.69 0.69 0.0 0 1 777.50 440.34   L 696.80 440.34   A 0.61 0.61 0.0 0 0 696.19 440.95   L 696.24 481.21   Q 686.46 481.82 677.00 481.62   Q 663.28 481.32 656.14 481.27   A 1.04 1.03 0.3 0 1 655.11 480.24   L 655.11 359.24   A 0.87 0.87 0.0 0 1 655.98 358.37   L 696.25 358.49   Z"/>
<path xmlns="http://www.w3.org/2000/svg" fill="#000000" d="   M 288.20 881.86   Q 286.67 882.26 286.67 880.25   Q 286.66 861.25 286.62 842.56   A 0.78 0.77 -90.0 0 1 287.39 841.78   L 326.47 841.77   L 368.70 841.81   L 450.63 841.82   L 450.58 881.85   L 410.09 881.89   A 0.46 0.46 0.0 0 0 409.63 882.35   L 409.63 921.47   A 0.62 0.62 0.0 0 0 410.25 922.09   L 449.93 922.13   L 531.82 922.10   A 0.56 0.56 0.0 0 0 532.38 921.54   L 532.38 882.38   A 0.59 0.58 -90.0 0 0 531.80 881.79   L 492.28 881.79   A 0.52 0.52 0.0 0 1 491.76 881.27   L 491.81 841.71   L 532.49 841.79   L 573.42 841.84   L 573.46 880.71   L 573.54 921.61   A 0.52 0.52 0.0 0 0 574.06 922.13   L 654.57 922.13   A 0.68 0.68 0.0 0 0 655.25 921.45   L 655.25 882.73   A 0.94 0.94 0.0 0 0 654.31 881.79   L 614.35 881.82   L 614.35 841.86   L 654.69 841.83   A 0.44 0.43 90.0 0 0 655.12 841.39   L 655.10 802.14   Q 655.43 802.04 655.45 801.83   L 695.52 801.68   A 0.71 0.71 0.0 0 0 696.22 800.98   L 696.29 762.13   L 696.16 722.52   A 0.94 0.89 -35.3 0 1 696.23 722.17   L 696.46 721.60   L 736.63 721.85   A 0.76 0.76 0.0 0 0 737.39 721.10   L 737.50 682.02   L 737.48 560.71   L 737.38 524.39   L 737.23 522.92   A 0.60 0.59 -2.6 0 0 736.63 522.38   L 705.85 522.53   L 696.80 522.03   A 0.54 0.53 -88.3 0 1 696.30 521.49   L 696.24 481.21   L 696.19 440.95   A 0.61 0.61 0.0 0 1 696.80 440.34   L 777.50 440.34   A 0.69 0.69 0.0 0 0 778.19 439.65   L 778.19 399.99   A 0.70 0.70 0.0 0 0 777.49 399.29   L 737.78 399.29   A 0.48 0.48 0.0 0 1 737.30 398.81   L 737.45 358.40   L 777.69 358.31   A 0.70 0.70 0.0 0 1 778.39 359.01   L 778.39 399.04   A 0.31 0.31 0.0 0 0 778.70 399.35   L 818.70 399.35   A 0.47 0.46 0.0 0 1 819.17 399.81   L 819.17 481.05   A 0.37 0.37 0.0 0 1 818.80 481.42   L 737.89 481.42   A 0.50 0.50 0.0 0 0 737.39 481.92   L 737.39 521.26   A 0.79 0.79 0.0 0 0 738.18 522.05   L 777.87 522.05   A 0.52 0.51 90.0 0 1 778.38 522.57   L 778.38 721.68   A 0.38 0.38 0.0 0 1 778.00 722.06   L 737.99 722.06   A 0.55 0.55 0.0 0 0 737.44 722.61   L 737.44 801.39   A 0.46 0.46 0.0 0 1 736.98 801.85   L 696.83 801.85   A 0.44 0.44 0.0 0 0 696.39 802.29   L 696.39 841.65   A 0.40 0.39 -0.0 0 1 695.99 842.04   L 655.57 842.04   A 0.28 0.27 0.0 0 0 655.29 842.31   L 655.29 881.32   A 0.37 0.36 0.0 0 0 655.66 881.68   L 695.92 881.68   A 0.49 0.49 0.0 0 1 696.41 882.17   L 696.41 962.19   A 0.51 0.51 0.0 0 1 695.90 962.70   L 369.22 962.70   A 0.47 0.47 0.0 0 1 368.75 962.23   L 368.75 882.47   A 0.61 0.61 0.0 0 0 368.14 881.86   L 288.20 881.86   Z"/>
<rect xmlns="http://www.w3.org/2000/svg" fill="#ffb1a4" x="-40.95" y="-40.89" transform="translate(532.50,440.37) rotate(0.1)" width="81.90" height="81.78" rx="1.09"/>
<path xmlns="http://www.w3.org/2000/svg" fill="#e58d85" d="   M 370.80 481.23   Q 368.98 480.96 368.66 481.99   Q 368.30 481.81 368.16 481.41   Q 368.82 481.14 368.69 479.96   Q 369.08 481.19 370.80 481.23   Z"/>
<path xmlns="http://www.w3.org/2000/svg" fill="#000000" d="   M 409.63 485.05   L 409.64 522.14   L 368.74 522.27   L 368.66 481.99   Q 368.98 480.96 370.80 481.23   L 408.64 481.21   A 0.62 0.61 86.9 0 1 409.25 481.76   L 409.63 485.05   Z"/>
<path xmlns="http://www.w3.org/2000/svg" fill="#fffdf4" d="   M 737.48 560.71   L 737.50 682.02   L 696.98 681.78   A 0.69 0.69 0.0 0 0 696.28 682.47   Q 696.27 701.69 696.06 720.87   Q 696.06 721.22 696.46 721.60   L 696.23 722.17   A 0.94 0.89 -35.3 0 0 696.16 722.52   L 696.29 762.13   L 656.14 762.28   A 0.72 0.72 0.0 0 0 655.42 763.00   L 655.45 801.83   Q 655.43 802.04 655.10 802.14   L 533.27 801.85   A 0.88 0.87 -90.0 0 0 532.40 802.73   L 532.49 841.79   L 491.81 841.71   L 450.63 841.82   L 368.70 841.81   L 368.62 802.63   A 0.78 0.77 -90.0 0 1 369.39 801.85   L 449.71 801.85   A 0.85 0.85 0.0 0 0 450.56 801.00   L 450.56 763.32   A 0.74 0.74 0.0 0 1 451.30 762.58   L 490.63 762.58   A 0.93 0.92 -0.0 0 0 491.56 761.66   Q 491.59 750.82 491.79 734.75   Q 491.88 727.51 491.18 722.60   A 0.60 0.59 86.1 0 0 490.59 722.08   L 410.30 722.08   A 0.59 0.59 0.0 0 0 409.71 722.67   L 409.71 761.38   A 0.98 0.98 0.0 0 1 408.73 762.36   L 286.55 762.43   L 245.82 762.50   L 245.79 722.36   A 0.28 0.28 0.0 0 1 246.07 722.08   L 286.26 722.08   A 0.44 0.44 0.0 0 0 286.70 721.64   L 286.67 642.13   Q 287.45 641.73 287.23 642.04   L 327.27 642.05   A 0.41 0.40 -90.0 0 0 327.67 641.64   L 327.67 602.27   A 0.57 0.56 0.0 0 1 328.24 601.71   L 368.46 601.71   A 0.31 0.30 0.0 0 0 368.77 601.41   L 368.75 522.09   Q 368.75 522.18 368.74 522.27   L 409.64 522.14   L 531.14 522.23   A 1.46 1.45 0.2 0 1 532.59 523.68   L 532.59 562.07   A 1.01 1.01 0.0 0 0 533.60 563.08   Q 631.69 563.28 687.23 562.94   C 701.61 562.85 718.24 563.35 733.79 562.62   A 0.56 0.54 22.0 0 0 734.12 562.49   Q 736.59 560.53 737.48 560.71   Z   M 533.47 601.51   A 0.73 0.73 0.0 0 1 532.74 600.79   L 532.09 563.91   A 0.73 0.73 0.0 0 0 531.36 563.19   L 492.38 563.19   A 0.73 0.73 0.0 0 0 491.65 563.92   L 491.65 600.99   A 0.73 0.73 0.0 0 0 492.38 601.72   L 531.68 601.72   A 0.73 0.73 0.0 0 1 532.41 602.45   L 532.41 681.12   A 0.73 0.73 0.0 0 0 533.14 681.85   L 572.79 681.85   A 0.73 0.73 0.0 0 0 573.52 681.12   L 573.52 602.24   A 0.73 0.73 0.0 0 0 572.79 601.51   L 533.47 601.51   Z   M 532.2765 682.7647   A 0.79 0.79 0.0 0 0 531.4851 681.9761   L 492.5852 682.0440   A 0.79 0.79 0.0 0 0 491.7965 682.8354   L 491.8635 721.2153   A 0.79 0.79 0.0 0 0 492.6549 722.0039   L 531.5548 721.9360   A 0.79 0.79 0.0 0 0 532.3435 721.1446   L 532.2765 682.7647   Z"/>
<path xmlns="http://www.w3.org/2000/svg" fill="#000000" d="   M 368.75 522.09   L 368.77 601.41   A 0.31 0.30 -0.0 0 1 368.46 601.71   L 328.24 601.71   A 0.57 0.56 0.0 0 0 327.67 602.27   L 327.67 641.64   A 0.41 0.40 90.0 0 1 327.27 642.05   L 287.23 642.04   Q 286.61 641.20 286.62 640.50   Q 286.67 612.88 286.61 601.83   A 0.37 0.36 90.0 0 1 286.97 601.46   L 327.14 601.46   A 0.50 0.50 0.0 0 0 327.64 600.96   L 327.64 522.50   A 0.45 0.45 0.0 0 1 328.09 522.05   L 368.75 522.09   Z"/>
<path xmlns="http://www.w3.org/2000/svg" fill="#fffdf4" d="   M 737.38 524.39   Q 732.67 524.84 721.21 525.13   Q 712.23 525.35 705.85 522.53   L 736.63 522.38   A 0.60 0.59 -2.6 0 1 737.23 522.92   L 737.38 524.39   Z"/>
<path xmlns="http://www.w3.org/2000/svg" fill="#dfd6bd" d="   M 533.47 601.51   L 572.79 601.51   A 0.73 0.73 0.0 0 1 573.52 602.24   L 573.52 681.12   A 0.73 0.73 0.0 0 1 572.79 681.85   L 533.14 681.85   A 0.73 0.73 0.0 0 1 532.41 681.12   L 532.41 602.45   A 0.73 0.73 0.0 0 0 531.68 601.72   L 492.38 601.72   A 0.73 0.73 0.0 0 1 491.65 600.99   L 491.65 563.92   A 0.73 0.73 0.0 0 1 492.38 563.19   L 531.36 563.19   A 0.73 0.73 0.0 0 1 532.09 563.91   L 532.74 600.79   A 0.73 0.73 0.0 0 0 533.47 601.51   Z"/>
<path xmlns="http://www.w3.org/2000/svg" fill="#000000" d="   M 286.67 642.13   L 286.70 721.64   A 0.44 0.44 0.0 0 1 286.26 722.08   L 246.07 722.08   A 0.28 0.28 0.0 0 0 245.79 722.36   L 245.82 762.50   L 245.77 801.22   A 0.64 0.63 0.0 0 1 245.13 801.85   L 205.43 801.85   A 0.56 0.56 0.0 0 0 204.87 802.41   L 204.87 841.44   A 0.40 0.39 -0.0 0 1 204.47 841.83   L 164.22 841.90   Q 163.77 841.70 163.77 841.23   Q 163.78 818.45 163.74 802.19   A 0.56 0.56 0.0 0 1 164.30 801.63   L 204.28 801.63   A 0.46 0.46 0.0 0 0 204.74 801.17   L 204.74 722.33   A 0.55 0.54 -90.0 0 1 205.28 721.78   L 245.30 721.78   A 0.28 0.27 0.0 0 0 245.58 721.51   L 245.58 642.34   A 0.53 0.52 0.0 0 1 246.11 641.82   L 286.67 642.13   Z"/>
<path xmlns="http://www.w3.org/2000/svg" fill="#dfd6bd" d="   M 737.50 682.02   L 737.39 721.10   A 0.76 0.76 0.0 0 1 736.63 721.85   L 696.46 721.60   Q 696.06 721.22 696.06 720.87   Q 696.27 701.69 696.28 682.47   A 0.69 0.69 0.0 0 1 696.98 681.78   L 737.50 682.02   Z"/>
<rect xmlns="http://www.w3.org/2000/svg" fill="#dfd6bd" x="-20.24" y="-19.98" transform="translate(512.07,701.99) rotate(-0.1)" width="40.48" height="39.96" rx="0.79"/>
<path xmlns="http://www.w3.org/2000/svg" fill="#dfd6bd" d="   M 368.70 841.81   L 326.47 841.77   Q 329.02 838.31 328.36 833.50   Q 327.38 826.31 327.19 815.51   C 327.13 812.00 327.57 808.80 327.49 805.20   C 327.45 802.94 326.40 801.83 324.25 801.89   Q 305.45 802.45 286.86 801.54   L 286.55 762.43   L 408.73 762.36   A 0.98 0.98 0.0 0 0 409.71 761.38   L 409.71 722.67   A 0.59 0.59 0.0 0 1 410.30 722.08   L 490.59 722.08   A 0.60 0.59 86.1 0 1 491.18 722.60   Q 491.88 727.51 491.79 734.75   Q 491.59 750.82 491.56 761.66   A 0.93 0.92 -0.0 0 1 490.63 762.58   L 451.30 762.58   A 0.74 0.74 0.0 0 0 450.56 763.32   L 450.56 801.00   A 0.85 0.85 0.0 0 1 449.71 801.85   L 369.39 801.85   A 0.78 0.77 90.0 0 0 368.62 802.63   L 368.70 841.81   Z"/>
<path xmlns="http://www.w3.org/2000/svg" fill="#feed9a" d="   M 286.55 762.43   L 286.86 801.54   L 286.28 840.94   A 0.86 0.86 0.0 0 1 285.42 841.79   L 246.44 841.79   A 1.00 1.00 0.0 0 0 245.44 842.81   L 246.06 881.76   L 204.69 881.70   L 165.11 881.85   A 1.69 1.68 -89.8 0 0 163.43 883.53   Q 163.41 900.57 163.89 915.75   Q 163.94 917.55 164.93 922.18   L 123.63 922.12   A 0.61 0.61 0.0 0 1 123.02 921.51   L 123.02 882.44   A 0.62 0.62 0.0 0 1 123.64 881.82   L 163.44 881.82   A 0.43 0.43 0.0 0 0 163.87 881.39   L 163.78 842.21   Q 163.95 842.02 164.22 841.90   L 204.47 841.83   A 0.40 0.39 0.0 0 0 204.87 841.44   L 204.87 802.41   A 0.56 0.56 0.0 0 1 205.43 801.85   L 245.13 801.85   A 0.64 0.63 -0.0 0 0 245.77 801.22   L 245.82 762.50   L 286.55 762.43   Z"/>
<path xmlns="http://www.w3.org/2000/svg" fill="#dfd6bd" d="   M 696.29 762.13   L 696.22 800.98   A 0.71 0.71 0.0 0 1 695.52 801.68   L 655.45 801.83   L 655.42 763.00   A 0.72 0.72 0.0 0 1 656.14 762.28   L 696.29 762.13   Z"/>
<path xmlns="http://www.w3.org/2000/svg" fill="#ead57f" d="   M 326.47 841.77   L 287.39 841.78   A 0.78 0.77 90.0 0 0 286.62 842.56   Q 286.66 861.25 286.67 880.25   Q 286.67 882.26 288.20 881.86   Q 287.50 881.81 286.67 882.22   L 246.06 881.76   L 245.44 842.81   A 1.00 1.00 0.0 0 1 246.44 841.79   L 285.42 841.79   A 0.86 0.86 0.0 0 0 286.28 840.94   L 286.86 801.54   Q 305.45 802.45 324.25 801.89   C 326.40 801.83 327.45 802.94 327.49 805.20   C 327.57 808.80 327.13 812.00 327.19 815.51   Q 327.38 826.31 328.36 833.50   Q 329.02 838.31 326.47 841.77   Z"/>
<path xmlns="http://www.w3.org/2000/svg" fill="#dfd6bd" d="   M 655.10 802.14   L 655.12 841.39   A 0.44 0.43 90.0 0 1 654.69 841.83   L 614.35 841.86   L 573.42 841.84   L 532.49 841.79   L 532.40 802.73   A 0.88 0.87 90.0 0 1 533.27 801.85   L 655.10 802.14   Z"/>
<path xmlns="http://www.w3.org/2000/svg" fill="#ffb1a4" d="   M 491.81 841.71   L 491.76 881.27   A 0.52 0.52 0.0 0 0 492.28 881.79   L 531.80 881.79   A 0.59 0.58 -90.0 0 1 532.38 882.38   L 532.38 921.54   A 0.56 0.56 0.0 0 1 531.82 922.10   L 449.93 922.13   Q 450.23 918.87 450.52 915.72   Q 450.88 911.93 450.87 909.27   Q 450.85 898.62 450.93 887.97   Q 450.94 887.27 450.70 884.91   Q 450.56 883.43 450.58 881.85   L 450.63 841.82   L 491.81 841.71   Z"/>
<path xmlns="http://www.w3.org/2000/svg" fill="#000000" d="   M 163.78 842.21   L 163.87 881.39   A 0.43 0.43 0.0 0 1 163.44 881.82   L 123.64 881.82   A 0.62 0.62 0.0 0 0 123.02 882.44   L 123.02 921.51   A 0.61 0.61 0.0 0 0 123.63 922.12   L 164.93 922.18   L 203.82 922.10   A 1.00 1.00 0.0 0 0 204.82 921.10   L 204.69 881.70   L 246.06 881.76   L 286.67 882.22   L 286.72 921.60   A 0.62 0.62 0.0 0 1 286.10 922.22   L 205.73 922.22   A 0.88 0.88 0.0 0 0 204.85 923.10   L 204.85 962.19   A 0.52 0.52 0.0 0 1 204.33 962.71   L 82.42 962.71   A 0.58 0.57 -0.0 0 1 81.84 962.14   L 81.84 882.19   A 0.52 0.52 0.0 0 1 82.36 881.67   L 122.39 881.67   A 0.41 0.41 0.0 0 0 122.80 881.26   L 122.80 842.41   A 0.64 0.63 90.0 0 1 123.43 841.77   L 163.38 841.77   A 0.37 0.36 -25.1 0 1 163.61 841.85   Q 163.82 842.01 163.78 842.21   Z"/>
<path xmlns="http://www.w3.org/2000/svg" fill="#e58d85" d="   M 614.35 841.86   L 614.35 881.82   Q 613.37 881.77 612.42 881.96   Q 611.24 882.19 610.50 882.16   Q 596.69 881.45 580.75 881.80   Q 577.48 881.87 573.46 880.71   L 573.42 841.84   L 614.35 841.86   Z"/>
<path xmlns="http://www.w3.org/2000/svg" fill="#ffb1a4" d="   M 614.35 881.82   L 654.31 881.79   A 0.94 0.94 0.0 0 1 655.25 882.73   L 655.25 921.45   A 0.68 0.68 0.0 0 1 654.57 922.13   L 574.06 922.13   A 0.52 0.52 0.0 0 1 573.54 921.61   L 573.46 880.71   Q 577.48 881.87 580.75 881.80   Q 596.69 881.45 610.50 882.16   Q 611.24 882.19 612.42 881.96   Q 613.37 881.77 614.35 881.82   Z"/>
<path xmlns="http://www.w3.org/2000/svg" fill="#ead57f" d="   M 204.69 881.70   L 204.82 921.10   A 1.00 1.00 0.0 0 1 203.82 922.10   L 164.93 922.18   Q 163.94 917.55 163.89 915.75   Q 163.41 900.57 163.43 883.53   A 1.69 1.68 -89.8 0 1 165.11 881.85   L 204.69 881.70   Z"/>
<path xmlns="http://www.w3.org/2000/svg" fill="#e58d85" d="   M 450.58 881.85   Q 450.56 883.43 450.70 884.91   Q 450.94 887.27 450.93 887.97   Q 450.85 898.62 450.87 909.27   Q 450.88 911.93 450.52 915.72   Q 450.23 918.87 449.93 922.13   L 410.25 922.09   A 0.62 0.62 0.0 0 1 409.63 921.47   L 409.63 882.35   A 0.46 0.46 0.0 0 1 410.09 881.89   L 450.58 881.85   Z"/>
</g></g></g></g></svg>