<?xml version="1.0" standalone="no"?>
<!DOCTYPE svg PUBLIC "-//W3C//DTD SVG 20010904//EN"
 "http://www.w3.org/TR/2001/REC-SVG-20010904/DTD/svg10.dtd">
<svg version="1.0" xmlns="http://www.w3.org/2000/svg"
 width="538.000000pt" height="592.000000pt" viewBox="0 0 538.000000 592.000000"
 preserveAspectRatio="xMidYMid meet">
<metadata>
Created by potrace 1.16, written by Peter Selinger 2001-2019
</metadata>
<g transform="translate(0.000000,592.000000) scale(0.100000,-0.100000)"
fill="#000000" stroke="none">
<path d="M2892 5902 c-81 -81 -158 -320 -169 -523 -7 -132 14 -268 67 -429 21
-63 36 -117 35 -118 -8 -8 -104 67 -186 144 -48 46 -93 84 -98 84 -56 0 -28
-257 44 -409 78 -164 226 -317 385 -396 19 -10 37 -19 39 -21 2 -2 -25 -40
-59 -86 -137 -181 -199 -376 -244 -770 -20 -176 -31 -221 -64 -286 -26 -50
-254 -291 -1372 -1450 -391 -406 -452 -472 -448 -490 3 -18 35 -28 175 -57
130 -27 339 -54 509 -67 431 -31 880 50 1229 222 171 84 266 150 376 259 189
190 297 404 328 651 11 84 35 117 93 126 29 5 41 1 68 -23 38 -34 40 -54 16
-188 -52 -298 -218 -581 -457 -780 -499 -416 -1338 -565 -2213 -392 l-116 23
-353 -331 c-479 -449 -477 -447 -477 -479 0 -44 17 -63 67 -80 225 -73 557
-31 963 122 222 83 533 246 727 380 l72 50 103 -33 c119 -39 456 -109 603
-125 55 -7 103 -15 106 -18 7 -8 59 -196 59 -212 0 -6 -49 -10 -130 -10 -126
0 -132 -1 -155 -25 -19 -18 -25 -35 -25 -69 0 -37 5 -48 31 -70 l31 -26 734 0
c806 0 778 -2 804 59 15 38 7 75 -25 107 -23 23 -29 24 -179 24 l-155 0 -3
123 c-5 205 -12 190 95 227 310 108 623 325 802 555 205 265 299 485 341 795
22 165 18 324 -12 501 -22 132 -125 566 -139 589 -3 5 14 11 37 15 112 17 238
77 319 150 22 19 43 35 48 35 5 0 31 -23 59 -50 54 -53 87 -63 117 -34 62 63
101 282 75 432 -26 156 -136 304 -308 416 l-90 58 -28 77 c-69 191 -164 331
-304 446 -172 141 -357 218 -601 250 -464 61 -812 330 -977 755 -14 36 -44
137 -66 225 -36 142 -44 160 -63 163 -12 2 -31 -6 -41 -16z m543 -5578 l0
-129 -267 -3 -266 -2 -31 99 c-17 54 -31 104 -31 110 0 7 42 11 128 11 121 0
326 20 409 39 21 5 43 8 48 7 6 -2 10 -54 10 -132z"/>
</g>
</svg>
